<svg xmlns="http://www.w3.org/2000/svg" width="134" height="58" viewBox="0 0 134 58">
    <defs>
        <linearGradient id="51lkgjdrea" x1="84.541%" x2="50%" y1="35.591%" y2="59.389%">
            <stop offset="0%" stop-color="#DFD1AC"/>
            <stop offset="100%" stop-color="#BCA573"/>
        </linearGradient>
        <linearGradient id="rcponllk9b" x1="78.69%" x2="44.268%" y1="13.783%" y2="78.915%">
            <stop offset="0%" stop-color="#5EB3E0"/>
            <stop offset="100%" stop-color="#307CBE"/>
        </linearGradient>
    </defs>
    <g fill="none" fill-rule="evenodd">
        <g>
            <g>
                <g>
                    <g>
                        <g>
                            <path fill="#307CBE" d="M34.446 27.617c-.124.102-.18.23-.188.389-.032.682-.273 1.313-.485 1.95-.12.36-.152.73-.143 1.107.037 1.63-.042 3.255-.333 4.862-.046.255.006.477.1.707.247.61.348 1.26.466 1.903.023.376.022 1.415.023 1.898-.168 1.072-.368 2.13-.86 3.119-.484.975-1.15 1.785-2.004 2.44-.236.182-.367.412-.476.672-.595 1.426-1.641 2.33-3.123 2.717-.27.07-.461.212-.616.439-.685 1.005-1.48 1.876-2.704 2.22-.083.023-.176.083-.225.154-.58.827-1.33 1.51-1.94 2.311-.288.38-.455.819-.45 1.303.007.542-.27.716-.772.696-1.99-.077-3.665-.821-4.837-2.466-.6-.845-1.2-1.588-2.223-1.953-.838-.298-1.466-.944-1.974-1.677-.195-.28-.43-.43-.762-.499-2.083-.43-3.72-1.46-4.583-3.51-.076-.182-.213-.308-.359-.421-1.776-1.377-2.4-3.306-2.536-5.448-.089-1.393.113-2.759.605-4.068.112-.298-.02-.551-.037-.823-.076-1.287-.178-2.572-.271-3.858-.183.2-.374.279-.591.215.217.064.408-.015.59-.215.088-.893-.067-1.749-.382-2.584-.091-.243-.162-.503-.186-.76-.043-.449-.244-.772-.54-1.116-.984-1.146-1.17-2.502-.85-3.95.053-.242.197-.448.376-.61.42-.377.848-.218.953.342.117.618.32.8.777.708.17-.035.255-.078.21-.294-.34-1.621.061-3.025 1.29-4.147.296-.27.237-.473.07-.766-1.237-2.176-2.462-4.359-3.689-6.54-.11-.195-.234-.387-.309-.597-.15-.422.092-.789.535-.745 1.552.153 3.1.343 4.65.514.262.028.312.223.384.418.267.718.553 1.43.804 2.154.124.36.252.374.542.149.71-.553.72-.54.408-1.405-.063-.176-.102-.367-.197-.524-.936-1.562-.355-3.069.144-4.584.151-.461.256-.938.395-1.404.167-.559.403-.664.902-.377.984.566 1.954 1.157 2.94 1.72.264.151.334.369.368.641.105.854.235 1.705.327 2.56.037.338.125.494.48.34.117-.052.248-.085.376-.098.432-.044.528-.254.451-.68-.152-.847-.233-1.705-.354-2.556-.032-.22.017-.399.138-.58 1.164-1.73 2.318-3.468 3.488-5.195.318-.47.585-.47.9-.003 1.17 1.732 2.326 3.475 3.494 5.21.139.205.147.4.113.634-.126.87-.236 1.742-.344 2.614-.022.176-.108.406.144.478.35.1.69.303 1.066.218.124-.028.094-.226.111-.354.115-.87.234-1.742.341-2.614.031-.254.097-.455.342-.596 1.015-.58 2.021-1.177 3.03-1.768.379-.223.65-.125.769.295.396 1.403.778 2.81 1.167 4.214.06.217-.033.406-.104.596-.253.684-.476 1.381-.778 2.043-.221.485-.137.76.308 1.05.614.4.59.434.853-.266.243-.647.5-1.29.727-1.943.093-.269.24-.371.52-.4 1.441-.145 2.88-.31 4.32-.473.25-.028.487-.045.648.199.171.259.077.492-.058.733-1.242 2.214-2.47 4.437-3.727 6.643-.275.483-.336.717.146 1.225.959 1.008 1.425 2.305 1.136 3.767-.03.154-.292.357.005.464.253.09.555.142.755-.154.108-.159.158-.338.17-.528.015-.24.076-.445.345-.51.255-.06.42.074.575.253.386.447.562.972.527 1.553-.071 1.217-.279 2.387-1.294 3.222zm.035-7.095c-.046-.18-.131-.349-.198-.523-.855-.815-.841-1.655-.08-2.524.084-.097.135-.223.199-.337.922-1.643 1.882-3.266 2.756-4.935.755-1.442-.147-2.883-1.747-2.881-1.32.002-2.62.235-3.926.388-.573.067-.803-.05-.922-.609-.26-1.231-.586-2.455-.928-3.66-.336-1.188-1.64-1.802-2.834-1.135-.81.453-1.603.938-2.405 1.407-.643.376-.644.375-1.072-.264-.986-1.473-1.967-2.948-2.957-4.417-.135-.2-.287-.397-.466-.554-.923-.808-2.118-.574-2.898.57-1.05 1.541-2.085 3.091-3.133 4.633-.12.178-.253.418-.53.27-.684-.365-1.407-.68-2.024-1.14-.778-.58-1.55-.944-2.52-.615-.582.314-.884.832-1.051 1.45-.323 1.19-.662 2.378-.963 3.574-.107.423-.274.567-.733.507-1.325-.175-2.657-.301-3.988-.422C1.095 9.217.33 9.8.068 10.737c-.22.79.13 1.421.493 2.061 1.038 1.837 2.072 3.676 3.11 5.513.15.266.294.512.057.82-.366.477-.6 1.03-.823 1.587-.068.172-.11.381-.335.406-1.106.121-1.66.891-2.1 1.798-.459 1.545-.264 3.05.496 4.422.495.892.98 1.766 1.237 2.756l.064.139c.127.46.078.933.102 1.4.14.06.288.105.423.171-.135-.066-.284-.11-.423-.17-.164 1.315.078 2.609.216 3.907.032.303.05.589-.044.883-.517 1.628-.692 3.287-.454 4.986.306 2.182 1.1 4.111 2.83 5.555.213.179.315.41.396.66l.415.662.388.55c1.083 1.159 2.379 1.963 3.914 2.353.361.092.633.273.875.55.681.783 1.461 1.445 2.454 1.788.452.156.737.443.983.845 1.46 2.39 3.628 3.515 6.384 3.574.846.019 1.528-.252 1.963-1.02.12-1.1.542-2.032 1.417-2.741.226-.184.376-.46.576-.68.097-.108.213-.219.343-.273 1.044-.431 1.873-1.131 2.54-2.034.243-.328.554-.523.934-.664 1.419-.524 2.48-1.464 3.154-2.836.115-.233.193-.502.407-.663 1.23-.924 1.997-2.182 2.57-3.583.415-1.013.665-2.057.647-3.157l.023-1.323c-.066-.384-.166-.767-.192-1.155-.06-.899-.49-1.72-.31-2.692.247-1.331.222-2.704.21-4.07-.009-.977.3-2.006.858-2.784.835-1.165 1.23-2.412 1.302-3.799.079-1.519-.79-2.971-1.993-3.284-.403-.105-.598-.299-.694-.673z" transform="translate(-552 -3348) translate(0 3322) translate(552 26)"/>
                            <path fill="#15163A" d="M33.886 40.433c-.168 1.072-.368 2.13-.86 3.119-.484.975-1.15 1.785-2.004 2.44-.236.182-.367.412-.475.672-.596 1.426-1.642 2.33-3.124 2.717-.27.07-.461.212-.616.439-.685 1.005-1.48 1.876-2.704 2.22-.083.024-.176.083-.225.154-.58.827-1.33 1.51-1.94 2.311-.288.38-.455.819-.45 1.303.007.542-.27.716-.772.696-1.99-.077-3.665-.821-4.837-2.466-.601-.845-1.2-1.588-2.223-1.953-.838-.298-1.466-.944-1.974-1.677-.195-.28-.431-.43-.762-.499-2.083-.43-3.72-1.46-4.583-3.51-.076-.182-.213-.308-.359-.421-1.776-1.377-2.4-3.306-2.536-5.448-.089-1.393.113-2.759.605-4.068.112-.298-.02-.551-.037-.823-.076-1.287-.178-2.572-.271-3.858.087-.893-.068-1.749-.383-2.584-.091-.243-.162-.503-.187-.76-.042-.449-.243-.772-.539-1.116-.984-1.146-1.17-2.502-.85-3.95.053-.241.197-.448.376-.61.42-.377.848-.218.953.342.117.618.32.8.777.708.17-.035.255-.078.21-.294-.34-1.621.061-3.025 1.29-4.147.296-.27.237-.473.07-.766-1.237-2.176-2.462-4.359-3.689-6.54-.11-.195-.234-.387-.309-.597-.15-.422.092-.789.535-.745 1.552.153 3.1.343 4.65.514.261.028.312.223.384.418.267.718.553 1.43.804 2.154.124.36.252.374.542.149.71-.553.72-.54.408-1.405-.063-.176-.102-.367-.197-.524-.936-1.562-.355-3.069.144-4.584.151-.461.255-.938.395-1.404.167-.559.403-.664.902-.377.984.566 1.954 1.157 2.94 1.72.264.152.334.369.368.641.105.854.235 1.705.327 2.56.037.338.124.494.48.34.117-.052.248-.085.376-.098.432-.044.528-.253.451-.68-.152-.846-.233-1.705-.354-2.556-.032-.22.017-.399.138-.58 1.164-1.73 2.318-3.468 3.488-5.195.318-.47.585-.47.9-.003 1.17 1.732 2.326 3.475 3.494 5.21.139.204.147.4.113.634-.126.87-.236 1.742-.344 2.614-.022.175-.108.406.144.478.35.1.69.303 1.066.218.124-.028.094-.226.111-.354.115-.87.234-1.742.341-2.614.031-.254.097-.455.342-.596 1.015-.58 2.021-1.177 3.03-1.768.379-.223.65-.125.769.295.396 1.403.778 2.81 1.167 4.214.06.217-.033.406-.104.596-.253.684-.476 1.382-.778 2.043-.221.485-.137.76.308 1.05.614.4.59.434.853-.266.243-.647.5-1.29.727-1.943.093-.269.24-.371.52-.4 1.441-.145 2.88-.31 4.32-.473.25-.028.487-.045.648.2.171.258.077.491-.058.732-1.242 2.214-2.47 4.437-3.727 6.643-.275.483-.336.718.146 1.224.959 1.009 1.425 2.306 1.136 3.768-.03.154-.293.357.005.464.253.09.555.142.755-.154.108-.159.158-.338.17-.528.015-.24.076-.445.345-.51.255-.06.42.074.575.253.386.447.561.972.527 1.553-.071 1.217-.279 2.387-1.294 3.222-.124.103-.181.23-.188.389-.032.682-.273 1.313-.485 1.95-.12.36-.152.73-.143 1.107.037 1.63-.042 3.254-.333 4.862-.046.255.006.477.1.707.247.61.348 1.26.466 1.903l.022.45v1.448" transform="translate(-552 -3348) translate(0 3322) translate(552 26)"/>
                            <path fill="#1C3374" d="M23.824 49.377c-.501 1.256-1.337 2.292-2.152 3.458-.184-.657.016-1.14.216-1.615.5-1.193.893-2.408.991-3.715.053-.7-.033-1.378-.128-2.06-.02-1.111-.403-2.082-1.09-2.998-.173.3-.08.531-.034.76.384 1.903.374 3.768-.44 5.582-.218.488-.337 1.025-.473 1.546-.05.196-.172.438.089.602-.56 1.097-.526 2.3-.56 3.652-.824-1.013-1.162-2.028-1.206-3.15-.055-1.398.373-2.692.866-3.971.375-.974.816-1.919.949-2.981.203-1.63-.079-3.163-.72-4.65-.086-.2-.256-.37-.212-.692.761.49 1.36 1.116 2.018 1.667.227.19.446.398.541.697-.243.133-.038.257.024.354 1.108 1.756 1.526 3.675 1.424 5.743-.03.59-.225 1.173-.103 1.77" transform="translate(-552 -3348) translate(0 3322) translate(552 26)"/>
                            <path fill="#1F4494" d="M6.6 32.323c.192.383.19.844.477 1.188.45.54 1.012.893 1.716.936 1.02.063 1.96-.228 2.884-.72-.082-.07-.104-.103-.133-.111-.212-.061-.515.192-.619-.026-.11-.233.216-.389.355-.574.506-.673 1.189-1.157 1.884-1.674-.249-.123-.419.046-.599.003l-.002-.001c.497-.803 1.273-1.248 2.12-1.518.95-.302 1.944-.23 2.923-.079.255.04.499.15.497.44-.003.35-.318.31-.546.326-.543.039-1.098.003-1.7.33.647.118 1.196-.194 1.885.094-.538.259-1.014.257-1.452.364-.47.115-.84.373-1.193.686-.358.318-.734.614-1.162.97.627.084.474.282.15.535-.513.398-1.011.815-1.516 1.224l-.008-.007c.368.083.672-.248 1.04-.161-.07.085-.123.194-.21.252-1.136.75-2.373 1.23-3.727 1.392-.31.037-.618.08-.927.12.39.263.788.136 1.166.216.215.336.534.187.808.153.565-.07 1.105-.259 1.698-.494-.38.709-1.995 1.273-3.01 1.16-1.197-.131-1.936-.887-2.564-1.97-.045.485.242.725.239 1.045-1.076-.886-1.158-2.619-.879-3.602.06-.214.166-.418.406-.497" transform="translate(-552 -3348) translate(0 3322) translate(552 26)"/>
                            <path fill="#1F4494" d="M8.216 27.939c.725-.72 1.69-.893 2.661-.405.418.21.717.203 1.105-.077.845-.611 1.777-.516 2.835-.197-.712.598-1.563.87-2.055 1.584-.023.02-.07.055-.067.059.042.067.07.012.103-.015.54-.173 1.032-.497 1.601-.56.084.153-.011.2-.08.25-1.136.836-2.084 1.855-2.915 2.992-.503.688-1.093 1.278-1.932 1.54-.193.061-.385.15-.597.085.01-.08-.012-.143-.084-.188-.955-.59-1.216-1.517-1.264-2.57-.038-.85.35-1.58.576-2.357l-.003.013.116-.154" transform="translate(-552 -3348) translate(0 3322) translate(552 26)"/>
                            <path fill="#182458" d="M18.149 38.436c.808 2.134.681 4.285.14 6.484.285-.24.688-1.102.796-1.752.102-.616.15-1.242.28-1.865.325 1.049.497 2.105.42 3.214-.111 1.626-.944 3.026-1.321 4.565-.146.596-.284 1.195-.463 1.952-.286-1.002-.21-1.868-.161-2.736-.586 1.642-.604 3.306-.234 5.012-.747-.586-1.233-1.336-1.476-2.249-.478-1.8-.102-3.531.459-5.232.274-.832.681-1.618.993-2.437.562-1.475.712-3.007.568-4.574-.011-.126-.001-.255-.001-.382" transform="translate(-552 -3348) translate(0 3322) translate(552 26)"/>
                            <path fill="#1F4494" d="M16.97 35.83c.242.938.191 1.777.138 2.604-.163 2.525-.689 4.954-1.882 7.215-.64 1.213-1.037 2.516-1.164 3.898-.037.392.063.777.02 1.241-.344-.221-.418-.536-.488-.829-.304-1.255-.171-2.487.237-3.698.27-.8.679-1.537 1.027-2.302.142-.313.251-.64.321-.985-1.176 1.595-2.72 2.963-2.98 5.102-.226-.395-.267-1.618-.117-2.376.2-1.02.695-1.877 1.348-2.669 1.253-1.518 2.33-3.145 2.973-5.035.228-.672.366-1.366.567-2.165" transform="translate(-552 -3348) translate(0 3322) translate(552 26)"/>
                            <path fill="#1C3374" d="M19.285 30.185c1.108-.134 2.186-.04 3.2.462.119.058.476.07.15.369-.083.077.093.174.18.23.342.224.688.442 1.032.662h-.011c-.156-.022-.359-.122-.438.065-.066.155.131.248.239.338.72.605 1.226 1.397 1.82 2.112 1.115 1.34 2.274 1.61 3.609.831l-.004.01c-.094.294-.374.455-.551.76.402.148.69-.124 1.008-.183l.009-.002c-.085.402-.47.698-.398 1.155-1.481.715-3.555.285-4.429-.917l.012-.016c.697.253 1.377.56 2.13.627.26.023.512.042.81-.127-1.798-.157-3.175-1.02-4.332-2.33l1.28.498.072-.11c-.458-.372-.917-.742-1.372-1.117-.385-.317-.382-.328.094-.597-.582-.457-1.127-.933-1.72-1.338-.58-.397-1.339-.317-2.133-.629.724-.286 1.286-.064 1.842-.09-.475-.31-1.006-.286-1.533-.306-.245-.01-.557.049-.566-.357M24.278 18.658c2.156.105 4.283.404 6.364.993.924.261 1.304 1.026 1.703 1.968-1.616-.52-3.138-.878-4.679-1.144-1.552-.269-3.12-.42-4.683-.678h2.83l.01-.126-3.862-.594c1.139-.191 2.271.106 3.416-.059l-1.113-.288c.007-.024.012-.047.014-.072" transform="translate(-552 -3348) translate(0 3322) translate(552 26)"/>
                            <path fill="#182458" d="M21.92 21.588c-.105.035-.21.068-.314.105-.242.087-.33.181-.043.35.385.227.26.5.006.723-.388.342-.865.498-1.367.583-.351.06-.76-.07-1.003.337-.053.089-.18.058-.248-.013-.24-.248-.422-.226-.621.064-.148.216-.363.14-.438-.06-.15-.404-.42-.389-.76-.326-.371.069-.746.02-1.09-.141-.2-.094-.422-.216-.406-.482.015-.254.216-.396.438-.453.572-.148 1.15-.272 1.776-.416-.382-.27-.844-.073-1.287-.38 1.863-.366 3.612-.264 5.356.11" transform="translate(-552 -3348) translate(0 3322) translate(552 26)"/>
                            <path fill="#1F4494" d="M14.333 18.64l-2.664.464c1.041.153 2.068-.069 3.11.105l-3.768.585.008.087h2.375c-2.767.403-5.529.794-8.19 1.69l.006.006c.17-.957.683-1.644 1.613-1.94 1.508-.48 3.079-.64 4.637-.85.88-.118 1.766-.18 2.65-.268l.223.122M10.564 41.35c.643-1.032 1.406-1.964 2.267-2.821.765-.761 1.506-1.546 2.261-2.317.113-.115.246-.209.424-.357.058.408-.16.633-.31.868-.776 1.21-1.622 2.378-2.574 3.445-1.873 2.102-2.166 4.54-1.704 7.18.025.147.068.299.048.44-.018.132-.12.11-.195.018-.772-1.46-.956-3.002-.656-4.62.115-.621.41-1.196.44-1.836M8.93 23.058c.114-1.022.762-1.513 1.925-1.4-.303-.322-.199-.436.16-.402.938.088 1.739.521 2.498 1.034.725.489 1.416 1.027 2.14 1.518.402.272.843.483 1.355.42.323-.04.308.1.18.317-.369.622-1.103.82-1.718.45-.711-.429-1.173-1.143-1.83-1.634-.353-.262-.694-.537-1.217-.662.14.318.46.384.507.656-.238.008-.413-.145-.601-.252-1.127-.64-2.255-.887-3.399-.045" transform="translate(-552 -3348) translate(0 3322) translate(552 26)"/>
                            <path fill="#1C3374" d="M19.54 36.567c1.016 1.25 2.429 1.918 3.724 2.739 1.766 1.12 2.287 2.728 1.934 4.853-.38-1.543-1.214-2.66-2.24-3.655-.376-.365-.783-.686-1.22-.97-.814-.528-1.437-1.232-1.92-2.068-.156-.27-.303-.545-.278-.899" transform="translate(-552 -3348) translate(0 3322) translate(552 26)"/>
                            <path fill="#1F4494" d="M8.092 44.967c-1.239-1.257-1.649-3.968-.872-5.243.286-.469.71-.752 1.193-.962.383-.167.536-.008.446.38-.143.617-.306 1.23-.466 1.843-.332 1.27-.55 2.55-.301 3.982" transform="translate(-552 -3348) translate(0 3322) translate(552 26)"/>
                            <path fill="#1C3374" d="M21.374 28.715c-.111.245-.243.296-.36.015-.133-.314-.364-.326-.641-.262-.837.191-1.69.012-2.538.133-.576.083-.917-.634-.605-1.237.314-.608.746-1.149.987-1.804.085-.229.336-.269.575-.184.277.625.374 1.21-.11 1.82-.26.327.042.735.521.807.338.051.657-.08.988-.1.938-.058.94-.059 1.183.812" transform="translate(-552 -3348) translate(0 3322) translate(552 26)"/>
                            <path fill="#307CBE" d="M11.491 44.802c-.04-1.101.352-2.071.938-2.976.487-.754 1.07-1.432 1.653-2.108.778-.9 1.587-1.776 2.188-2.882-.027.584-.354 1.414-.868 2.267-.455.754-1.013 1.427-1.594 2.082-.484.544-.918 1.125-1.32 1.732-.39.592-.701 1.226-.997 1.885" transform="translate(-552 -3348) translate(0 3322) translate(552 26)"/>
                            <path fill="#1F4494" d="M5.43 25.504c.747-.014 1.497.657 1.581 1.414.015.127.064.267-.093.342-.129.06-.263.035-.364-.055-.151-.135-.285-.29-.43-.433-.31-.31-.584-.267-.786.124-.214.41-.108 1.005.332 1.357.394.315.492.666.373 1.125-.102.392.043.777.044 1.167.002.398-.026.79-.243 1.13-.181.285-.41.512-.753.178-.02-.328.07-.638.221-.917.447-.824.338-1.571-.117-2.38-.58-1.031-.667-2.1.235-3.052" transform="translate(-552 -3348) translate(0 3322) translate(552 26)"/>
                            <path fill="#1C3374" d="M23.542 23.555l.518-.12c-.066.372-.478.483-.524.817-.898 1.133-2.246 1.3-3.012.636-.138-.12-.262-.262-.365-.413-.08-.116-.098-.287.114-.262.837.099 1.444-.386 2.059-.822.379-.268.77-.508 1.17-.738.25-.053.498-.108.797-.173-.229.403-.665.579-.835.975l-.054.117.132-.017M21.168 32.841c.37.359.376.674-.018.947-.194.135-.426.237-.655.292-1.209.286-2.422.285-3.63-.007-.307-.074-.62-.18-.804-.46-.165-.25-.246-.522.125-.692 1.1.5 2.255.56 3.428.417.544-.067 1.118-.075 1.554-.497" transform="translate(-552 -3348) translate(0 3322) translate(552 26)"/>
                            <path fill="#307CBE" d="M6.087 43.875c-1.032-1.808-1.612-3.672-.799-5.711.084-.21.154-.553.423-.518.231.03.29.36.371.585.132.367.083.746-.01 1.106-.375 1.444-.366 2.881.013 4.32.018.069.002.145.002.218M13.675 36.395c.05.258-.138.418-.26.595-.403.586-.877 1.115-1.407 1.584-1.336 1.187-2.463 2.517-3.003 4.282-.232-1.368.116-2.567 1.13-3.484 1.144-1.034 2.361-1.984 3.546-2.97l-.006-.007" transform="translate(-552 -3348) translate(0 3322) translate(552 26)"/>
                            <path fill="#1F4494" d="M10.365 25.583c-.046.506.316.743.596 1.17-.908-.233-1.709-.427-2.522.032.143-.612.387-1.141.804-1.587.244-.26.515-.482.82-.666.277-.167.465-.152.605.183.279.665.732 1.204 1.363 1.725-.734-.031-1.155-.479-1.666-.857" transform="translate(-552 -3348) translate(0 3322) translate(552 26)"/>
                            <path fill="#1C3374" d="M27.014 25.551c-.505.47-.95.83-1.72.935.732-.573 1.17-1.189 1.495-1.9.148-.324.429-.129.621-.007.821.519 1.317 1.282 1.663 2.375-.875-.579-1.685-.496-2.563-.209.134-.434.554-.65.504-1.194" transform="translate(-552 -3348) translate(0 3322) translate(552 26)"/>
                            <path fill="#182458" d="M15.118 16.342c-.51.095-.7-.182-.752-.646-.104-.907-.226-1.812-.334-2.718-.075-.624.084-.808.702-.882.548-.066.583.295.627.695.105.963.204 1.929.36 2.884.088.54-.075.744-.603.667M22.15 16.361c-.4.057-.565-.14-.479-.683.161-1.009.256-2.029.377-3.044.035-.3.113-.59.49-.526.355.06.887.002.829.587-.111 1.108-.282 2.211-.44 3.315-.057.393-.383.33-.777.351M9.467 16.951c-.308.031-.45-.177-.501-.419-.12-.557-.7-.982-.46-1.634.022-.06.108-.097.167-.141.912-.673.832-.671 1.19.319.1.279.213.554.323.83.33.832.17 1.064-.72 1.045M27.864 16.944c-.147-.016-.295-.029-.443-.047-.348-.042-.505-.213-.372-.573.2-.543.402-1.086.6-1.63.14-.382.375-.41.697-.212.72.44.753.55.384 1.33-.12.252-.22.514-.32.776-.097.257-.251.412-.546.356" transform="translate(-552 -3348) translate(0 3322) translate(552 26)"/>
                            <path fill="#307CBE" d="M10.564 41.35c-.029.64-.324 1.215-.44 1.836-.3 1.618-.115 3.16.657 4.62-.821-.534-1.237-1.322-1.338-2.275-.163-1.534.293-2.91 1.121-4.18M5.43 25.504c-.902.952-.816 2.02-.235 3.052.455.809.564 1.556.117 2.38-.15.279-.241.589-.221.917-.431-.264-.412-.666-.204-1.017.394-.664.258-1.266-.052-1.902-.362-.745-.634-1.523-.398-2.37.145-.518.394-.962.993-1.06M8.103 28.08c-.225.777-.614 1.507-.575 2.358.047 1.052.308 1.979 1.263 2.57.072.044.093.107.084.187-.897-.044-1.418-.579-1.722-1.369-.47-1.223-.05-2.855.95-3.746" transform="translate(-552 -3348) translate(0 3322) translate(552 26)"/>
                            <path fill="#BBAF96" d="M23.991 28.901c-.58-.244-1.126-.542-1.76-.59.01.045.01.101.037.12 1.306.902 2.3 2.106 3.242 3.363.326.435.715.813 1.186 1.091 1.136.673 2.302.299 2.774-.938.504-1.323.29-2.577-.558-3.699-.832-1.1-2.124-1.331-3.307-.611-.206.126-.346.154-.538-.01-.96-.816-2.028-.703-3.206-.357.791.524 1.64.855 2.13 1.631" transform="translate(-552 -3348) translate(0 3322) translate(552 26)"/>
                            <path fill="#BBAF96" d="M31.003 34.661c.175-.84-.18-2.295-.826-2.555-.552 2.451-3.19 3.237-5.113 1.488l.946.084c-.638-.954-1.427-1.648-2.292-2.265l-.142-.14c.09-.065.169-.027.246.025.127-.026.275.144.39-.035-1.154-1.432-3.528-2.102-5.22-1.486-.2.072-.313.19-.31.407 1.107-.133 2.185-.039 3.2.463.118.058.475.07.15.369-.084.077.092.174.18.23.342.224.687.442 1.031.662l-.007.03-.004-.03c-.155-.021-.358-.122-.438.065-.066.155.132.248.239.338.72.605 1.226 1.397 1.82 2.112 1.116 1.34 2.274 1.61 3.61.831l-.005.012c-.093.292-.374.453-.551.757.403.15.69-.123 1.008-.182l.027-.008-.018.006c-.084.402-.47.698-.398 1.155.592-.34.964-.883 1.317-1.445l.138-.135c.075.09.027.16-.034.23-.009.374-.406.63-.307 1.037l-.012.01c.68-.525 1.193-1.153 1.375-2.03M28.775 40.755c-.708-.995-1.524-1.698-2.6-2.054l-.07.073c1.435 3.005 1.306 6.054.184 9.188 1.797-.744 2.154-2.267 2.347-3.936.265.36.184.793.397 1.136.95-1.529.637-5.152-.307-6.025.016.508.17 1.008.05 1.618" transform="translate(-552 -3348) translate(0 3322) translate(552 26)"/>
                            <path fill="#BBAF96" d="M24.653 38.633c-1.141-1.027-2.435-1.83-3.759-2.586l-.068.075c.247.379.572.685.9.99.599.56 1.213 1.102 1.8 1.674 1.265 1.235 1.884 2.732 1.857 4.522-.035 2.355-.547 4.598-1.445 6.801.371-.072.484-.373.635-.608 1.33-2.07 1.883-4.362 1.893-6.81.006-1.637-.612-2.977-1.813-4.058M32.403 27.076c.024-.992-.291-1.524-.975-1.644-.536-.095-1.184.33-1.5 1.03-.112.247-.408.59-.11.795.33.228.545-.154.75-.388.143-.163.258-.398.533-.32.287.084.395.33.433.598.056.39-.024.793-.333 1.018-.502.367-.604.793-.443 1.36.048.168-.01.37-.029.554-.037.373-.069.747.015 1.115.15.663.495.99.879.857.377-.132.546-.73.359-1.272-.012-.035-.025-.071-.044-.103-.328-.554-.243-1.101.011-1.655.282-.616.444-1.263.454-1.945M22.86 23.455l.078.1.518-.12c-.065.372-.478.483-.523.817.647-.185 1.169-.618 1.76-.917.94-.475 1.833-.582 2.694.156.084.072.185.128.286.174.271.122.469.162.392-.273-.093-.524-.226-1.021-.593-1.424-.388-.426-.918-.41-1.474-.416.122-.093.246-.142.25-.201.011-.137-.129-.098-.204-.095-1.23.048-2.268.54-3.146 1.398l.798-.174c-.23.403-.665.579-.836.975M31.167 37.867c.142.775.193 1.54.01 2.404-.734-1.374-.734-1.374-1.087-1.467.475 1.802.669 3.62.27 5.542 1.799-1.397 2.319-5.746.807-6.479M21.024 43.206c.384 1.904.373 3.77-.44 5.583-.22.488-.337 1.025-.473 1.546-.051.196-.172.438.088.602.017-.131.083-.235.15-.35.949-1.59 1.752-3.233 1.799-5.143-.02-1.11-.403-2.081-1.09-2.997-.174.3-.08.531-.034.76" transform="translate(-552 -3348) translate(0 3322) translate(552 26)"/>
                            <path fill="#BBAF96" d="M21.875 41.51c-.243.132-.037.256.024.354 1.109 1.755 1.527 3.674 1.424 5.742-.03.59-.225 1.173-.102 1.77 1.137-2.666.955-5.173-.893-7.478-.126-.158-.238-.334-.453-.389" transform="translate(-552 -3348) translate(0 3322) translate(552 26)"/>
                            <path fill="#FFF" d="M11.293 23.99c-.315-.074-.435-.03-.301.309.185.467.364.939.676 1.34.262.337.592.559 1.216.552.182-.003.51-.127.833-.27.192-.085.264-.169.08-.353-.719-.715-1.484-1.343-2.504-1.578M24.901 24.978c.104-.218.18-.449.277-.67.135-.31.075-.404-.276-.323-1.1.252-1.9.944-2.705 1.772 1.336.758 2.086.527 2.704-.78" transform="translate(-552 -3348) translate(0 3322) translate(552 26)"/>
                            <path fill="#BBAF96" d="M18.996 28.003c.338.051.657-.08.988-.1.938-.058.94-.059 1.182.812.293-.697.089-1.475-.506-1.579-.606-.106-.872-.496-1.152-.943-.226-.36-.427-.76-.923-.817.277.625.373 1.21-.111 1.82-.26.327.043.735.522.807" transform="translate(-552 -3348) translate(0 3322) translate(552 26)"/>
                            <path fill="#FFF" d="M20.19 32.701c-1.075.098-2.147.09-3.222.004-.31-.025-.637-.035-.89.216 1.1.5 2.255.56 3.428.417.544-.066 1.118-.075 1.554-.497-.277-.127-.573-.167-.87-.14" transform="translate(-552 -3348) translate(0 3322) translate(552 26)"/>
                            <path fill="#307CBE" d="M9.903 36.528c-.378-.08-.776.047-1.166-.216.31-.04.618-.083.927-.12 1.354-.162 2.59-.642 3.726-1.392.088-.058.141-.167.21-.253l.016-.015c.12-.012.217-.065.292-.159.231-.083.174.031.083.134-.41.463-.898.829-1.43 1.137-.826.477-1.691.836-2.658.884M6.6 32.323c-.239.08-.344.283-.405.497-.279.983-.197 2.716.879 3.602-.108.245-.238.068-.33 0-1.23-.893-1.528-2.677-.665-3.935.192-.28.225-.29.522-.164M8.93 23.058c1.144-.842 2.272-.595 3.399.045.188.107.363.26.601.252l.171.146.109.112c-.213.193-.384-.008-.55-.08-1.153-.501-2.307-.92-3.558-.319-.107.052-.29.09-.172-.156" transform="translate(-552 -3348) translate(0 3322) translate(552 26)"/>
                            <path fill="#1F4494" d="M15.635 28.128c.013-.188.056-.37.18-.514.165-.191.37-.485.618-.321.28.185.179.526.013.79-.077.121-.189.226-.3.32-.107.09-.224.23-.381.13-.138-.09-.114-.26-.13-.405" transform="translate(-552 -3348) translate(0 3322) translate(552 26)"/>
                        </g>
                        <g fill-rule="nonzero">
                            <path fill="url(#51lkgjdrea)" d="M11.667 7.44c.589 0 1.08.096 1.472.289.392.192.691.45.898.772.134.229.242.45.325.663.083.213.134.45.155.71.02.166.036.382.046.647.008.199.013.42.015.662v9.185c0 .364-.004.684-.015.96-.01.275-.025.5-.046.678-.041.25-.098.475-.17.678-.073.203-.176.424-.31.663-.423.676-1.213 1.014-2.37 1.014-.557 0-1.04-.078-1.448-.234-.407-.156-.71-.416-.906-.78-.123-.24-.245-.496-.363-.772-.12-.276-.2-.554-.24-.835-.074-.379-.115-.95-.123-1.716l-.001-.296v-7.624c0-.894.04-1.544.124-1.95.061-.312.136-.603.224-.873s.214-.53.38-.78c.464-.707 1.249-1.06 2.353-1.06zm7.26 0c.826 0 1.513.224 2.06.67.165.178.307.388.426.633.119.244.23.501.333.772.041.239.067.522.077.85.01.327.016.704.016 1.13v2.949c-.34-.385-.705-.684-1.092-.897-.387-.213-.782-.372-1.185-.476v-2.433c0-.655-.222-.983-.666-.983-.423 0-.635.328-.635.983v2.261c0 .645.114 1.118.341 1.42.02.104.305.348.852.733l.263.187c.465.427.829.767 1.092 1.022.263.255.446.465.55.632.196.301.325.707.387 1.216.062.51.093 1.16.093 1.95v.886c0 1.217-.263 2.11-.79 2.683-.217.26-.503.447-.86.561-.356.115-.756.172-1.2.172-1.022 0-1.765-.265-2.23-.796-.289-.343-.513-.821-.673-1.435-.16-.613-.24-1.403-.24-2.37v-2.571l2.415 1.856v2.165c0 .676.212 1.014.635 1.014.444 0 .666-.338.666-1.014v-2.258c0-.177-.01-.318-.03-.422-.021-.104-.047-.202-.078-.296-.041-.02-.093-.068-.155-.14-.062-.073-.134-.151-.217-.234-.103-.125-.224-.247-.364-.367-.07-.06-.145-.125-.226-.197l-.262-.232-.263-.234c-.165-.166-.328-.325-.488-.476-.16-.15-.333-.33-.518-.538-.382-.301-.625-.655-.728-1.06-.134-.27-.233-.557-.294-.858-.062-.302-.093-.666-.093-1.092v-.702c0-1.872.304-3.114.913-3.728.517-.624 1.24-.936 2.168-.936zm7.26 0c1.157 0 1.946.354 2.37 1.06.333.548.513 1.379.539 2.493l.003.284v3.806c-.63.063-1.247.226-1.85.492-.519.227-1.015.544-1.491.95l-.237.212v4.41c0 .677.212 1.015.635 1.015.41 0 .63-.288.662-.864l.004-.15v-3.32c.43-.575 1.109-.93 2.039-1.063l.238-.028v3.834c0 .634-.047 1.18-.14 1.637-.093.458-.227.817-.402 1.077-.403.717-1.193 1.076-2.37 1.076-1.084 0-1.868-.338-2.354-1.014-.165-.24-.302-.496-.41-.772-.108-.276-.173-.554-.194-.835l-.077-.857c-.023-.258-.038-.539-.044-.843l-.002-.312v-7.936c.002-.303.007-.581.015-.835.01-.337.047-.626.108-.865.062-.27.137-.546.225-.827.088-.28.214-.546.38-.795.485-.687 1.27-1.03 2.353-1.03zm18.9 0c.588 0 1.079.096 1.471.289.392.192.692.45.898.772.134.229.243.45.325.663.083.213.135.45.155.71.021.166.036.382.047.647.008.199.012.42.014.662l.001.25v8.935c0 .364-.005.684-.015.96-.01.275-.026.5-.047.678-.041.25-.098.475-.17.678-.072.203-.176.424-.31.663-.423.676-1.213 1.014-2.37 1.014-.557 0-1.04-.078-1.447-.234-.408-.156-.71-.416-.906-.78-.124-.24-.245-.496-.364-.772s-.199-.554-.24-.835c-.073-.379-.114-.95-.122-1.716l-.002-.296v-7.69c.002-.86.043-1.488.124-1.884.062-.312.137-.603.225-.873.087-.27.214-.53.379-.78.465-.707 1.25-1.06 2.354-1.06zm-40.58-3.9c1.156 0 1.915.344 2.276 1.03.316.57.486 1.494.508 2.772l.003.3v5.226c0 .77-.026 1.41-.077 1.919-.052.51-.12.884-.202 1.123-.072.083-.15.19-.232.32-.083.13-.176.247-.279.35-.144.167-.35.31-.62.43-.268.12-.567.2-.897.241-.176 0-.4.01-.674.032-.219.016-.486.026-.8.03h-.245v4.303c0 .343.01.637.03.881.021.244.052.442.094.593.04.15.12.312.24.483.079.115.168.232.268.354l.157.184H0c.361-.405.573-.748.635-1.03.09-.272.141-.68.152-1.224l.003-.241V6.036c0-.655-.052-1.144-.155-1.466-.054-.282-.223-.58-.507-.894L0 3.541h4.507zm28.847 4.196v14.145c0 .27.01.512.031.725.021.213.062.398.124.554.062.125.137.273.225.444.088.172.193.341.317.507h-3.716c.258-.322.438-.665.542-1.03.04-.103.072-.267.093-.49.02-.224.03-.481.03-.773V11.233c0-.497-.01-.914-.03-1.25-.021-.354-.052-.614-.093-.78-.104-.406-.377-.895-.821-1.467h3.298zM37.41 0c.186 0 .359.034.519.101.16.068.325.154.495.258.17.104.328.22.472.35.145.13.305.258.48.383.104.083.246.2.426.35.181.152.406.279.674.383l.519.14c.19.052.43.136.72.25-.403.405-.82.853-.945 1.341-.041.23.031 4.04 0 4.352-.025.25-.01.536-.003.859l.003.249v13.442c0 .25.02.437.062.561.089.33.264.645.527.944l.14.148h-3.212c-.516 0-.932-.005-1.249-.015-.33-.01-.578-.047-.743-.11-.527-.239-.868-.707-1.022-1.403-.083-.364-.15-.845-.202-1.443-.044-.513-.07-1.119-.076-1.818l-.001-.358v-7.11c0-.624.015-1.16.046-1.606.031-.447.067-.796.109-1.045.196-.853.759-1.321 1.688-1.404.144-.02.322-.037.534-.047.159-.008.342-.013.55-.015h.588V3.774c0-.447-.015-.848-.046-1.201-.031-.354-.098-.666-.202-.936-.185-.51-.47-1.056-.851-1.638zm15.449 7.736c1.208 0 1.992.38 2.354 1.14.206.425.34 1.044.402 1.855.042.198.062.473.062.827v11.243c0 .28.026.484.078.608.051.125.116.221.193.289.078.068.142.127.194.18.052.051.077.13.077.233H52.92c.217-.28.377-.696.48-1.247.02-.104.041-.284.062-.539.02-.254.03-.585.03-.99v-10.51c0-.614-.17-.983-.51-1.108-.042-.02-.132-.036-.271-.046-.14-.01-.333-.016-.581-.016v12.32c0 .405.01.746.031 1.021.02.276.072.517.155.725l.124.39H49.14l.232-.358c.207-.312.32-.536.341-.671.041-.166.067-.361.078-.585.01-.224.015-.486.015-.788V11.186c-.001-1.027-.032-1.698-.093-2.015-.041-.218-.124-.439-.248-.662-.123-.224-.304-.481-.542-.773zM11.636 9.655c-.39 0-.6.28-.63.837l-.005.146v10.51c0 .676.212 1.014.635 1.014.41 0 .63-.288.662-.864l.004-.15v-10.51c0-.655-.222-.983-.666-.983zm33.42 0c-.39 0-.601.28-.631.837l-.004.146v10.51c0 .676.212 1.014.635 1.014.41 0 .63-.288.662-.864l.004-.15v-10.51c0-.655-.222-.983-.666-.983zm-6.579.374c-.485 0-.8.1-.944.297-.114.152-.175.61-.185 1.375l-.001.216v8.014c0 .426.02.772.062 1.037.041.266.082.43.124.492.074.168.336.26.787.278l.157.002V10.03zM3.995 6.005h-.727v8.688h.727c.47 0 .722-.31.755-.928l.004-.148V7.035c0-.687-.253-1.03-.759-1.03zm22.161 3.65c-.39 0-.6.28-.63.837l-.005.146v3.447l1.301-.608v-2.84c0-.654-.222-.982-.666-.982zm5.68-5.313c.362 0 .656.096.883.287.145.122.256.258.333.407.078.149.117.334.117.556 0 .39-.17.688-.511.894-.28.168-.584.252-.914.252-.32 0-.61-.1-.867-.298-.248-.221-.372-.504-.372-.848 0-.222.046-.407.14-.556.092-.15.211-.285.356-.407.216-.191.495-.287.836-.287z" transform="translate(-552 -3348) translate(0 3322) translate(552 26) translate(41.925 14.775)"/>
                            <path fill="url(#rcponllk9b)" d="M88.619 8.154c1.022 0 1.714.052 2.075.156.248.125.457.294.627.507.17.214.307.502.41.866.104.343.171.816.202 1.42.027.517.042 1.125.045 1.825l.001.358v6.726c0 .676-.015 1.256-.046 1.74-.031.483-.067.85-.108 1.099-.104.364-.302.653-.597.866-.294.213-.71.34-1.246.382-.093.015-.204.025-.331.03l-.134.001h-.898c.02.385.054.741.1 1.069.047.327.122.631.225.912-.485.104-.857.244-1.115.421-.165.042-.333.14-.503.297-.17.156-.338.353-.504.592-.299.364-.529.642-.689.835l-.14.167c-.08.095-.134.156-.162.184-.316.336-.648.526-.996.568l-.15.009h-.278c.402-.624.715-1.19.937-1.7.222-.51.394-.967.518-1.373.104-.426.189-.964.256-1.614.057-.557.09-1.204.098-1.94l.003-.377V9.84c0-.25-.021-.443-.062-.578-.073-.166-.16-.34-.264-.523-.077-.136-.178-.28-.302-.431l-.131-.154h3.159zm-27.81-5.206c1.053 0 1.889.338 2.508 1.014.548.561.821 1.648.821 3.26v4.632L61.66 9.5V7.612c0-.385-.01-.7-.03-.944-.021-.244-.052-.45-.094-.616-.103-.52-.345-.78-.727-.78-.3 0-.522.182-.666.546-.042.177-.067.377-.078.6-.01.224-.015.481-.015.773v2.308c0 .697.18 1.269.542 1.716.206.156.395.317.565.483.17.167.338.338.503.515.155.125.338.304.55.538.212.234.462.502.751.804.258.27.473.545.643.826.17.281.297.577.38.89.04.26.077.592.108.998.03.405.046.904.046 1.497v2.103c0 1.622-.273 2.73-.82 3.322-.568.634-1.384.952-2.447.952-1.012 0-1.838-.318-2.478-.952-.186-.166-.338-.356-.457-.57-.119-.212-.23-.46-.333-.74-.02-.229-.047-.505-.078-.827-.03-.322-.046-.697-.046-1.123v-5.16l2.57 1.919v3.179c0 .322.006.595.016.819.01.223.036.408.078.553.124.343.346.515.666.515.36 0 .593-.213.696-.64.104-.28.155-.748.155-1.403v-.855c0-1.466-.165-2.511-.495-3.135-.155-.427-.656-.999-1.502-1.716-.424-.343-.757-.637-1-.881-.242-.245-.405-.424-.487-.539-.227-.332-.4-.701-.519-1.107s-.178-.863-.178-1.373V7.066c0-.385.015-.73.046-1.038l.078-.756c.196-.593.46-1.06.79-1.404.66-.613 1.466-.92 2.416-.92zm7.498 5.206c-.144.292-.248.614-.31.968-.062.353-.093.691-.093 1.013 0 .104.016.294.047.57.03.275.057.606.077.99l.79 8.07 1.053-8.07c.062-.26.098-.488.109-.686.01-.198.015-.395.015-.593 0-.426-.044-.826-.132-1.2-.087-.375-.203-.729-.348-1.062h3.686c-.155.292-.274.588-.356.89-.083.301-.124.608-.124.92 0 .135.02.346.062.632.04.286.082.652.123 1.1l.76 8.07 1.083-8.07c.042-.302.073-.58.093-.835.02-.255.031-.466.031-.632 0-.343-.041-.691-.124-1.045-.082-.354-.19-.697-.325-1.03h3.299c-.104.167-.191.325-.264.476-.072.151-.139.31-.2.476-.042.146-.086.325-.132.538-.047.213-.09.47-.132.772l-1.797 11.421c-.02.167-.043.315-.07.445-.025.13-.038.236-.038.32 0 .426.15.935.45 1.528h-3.872c.34-.811.51-1.44.51-1.887v-.312l-.944-6.492-1.084 6.398v.406c0 .322.041.637.124.943.082.307.211.622.387.944h-3.872c.228-.593.341-1.102.341-1.529v-.67l-1.487-11.577c-.04-.489-.118-.92-.232-1.295-.113-.374-.289-.676-.526-.905zm13.408-.296c.909 0 1.652.302 2.23.905.165.166.302.35.41.554.109.202.184.429.225.678.041.198.072.44.093.725.017.23.026.496.03.802l.001.236v10.068c.002.285.007.525.015.72.01.245.026.42.047.523.035.312.18.617.436.913l.137.148h-4.785c-.217 0-.4-.005-.55-.016-.15-.01-.266-.036-.349-.078-.165-.103-.296-.236-.394-.397-.099-.161-.179-.362-.24-.6-.062-.209-.099-.516-.109-.921-.009-.338-.014-.741-.015-1.209V18.73c0-.302.02-.515.062-.64.103-.405.335-.8.696-1.185l.465-.429c.176-.161.413-.361.712-.6.527-.406.847-.671.96-.796.207-.166.346-.405.419-.717.048-.208.09-.412.124-.61l.046-.295v-2.62c0-.24-.057-.411-.17-.515-.114-.104-.253-.156-.418-.156-.41 0-.63.305-.662.917l-.004.159v2.714c-.725.328-1.425.878-2.1 1.652l-.223.267v-4.172c.003-.294.007-.562.015-.804.01-.323.036-.577.078-.765.062-.301.162-.564.302-.787.139-.224.291-.44.456-.648.486-.561 1.172-.842 2.06-.842zm6.78 2.683v11.296c.527 0 .847-.099.96-.296.062-.083.098-.252.109-.507.008-.212.013-.499.015-.86v-7.777c0-.468-.01-.834-.03-1.1-.022-.265-.053-.45-.094-.553-.134-.135-.454-.203-.96-.203zm-6.114 7.035c-.206.187-.374.33-.503.429-.13.098-.215.169-.256.21-.289.237-.452.586-.488.913l-.007.139v1.79c0 .156.01.276.03.359.042.146.168.244.38.296.17.042.383.067.642.075l.202.003v-4.214z" transform="translate(-552 -3348) translate(0 3322) translate(552 26) translate(41.925 14.775)"/>
                        </g>
                    </g>
                </g>
            </g>
        </g>
    </g>
</svg>
