<svg xmlns="http://www.w3.org/2000/svg" xmlns:xlink="http://www.w3.org/1999/xlink" width="200" height="52" viewBox="0 0 200 52">
    <defs>
        <circle id="ks3zdeei8a" cx="25.647" cy="25.647" r="25.647"/>
    </defs>
    <g fill="none" fill-rule="evenodd">
        <g>
            <g>
                <g>
                    <g transform="translate(-748 -3351) translate(0 3322) translate(748 29)">
                        <mask id="tfumzvmrdb" fill="#fff">
                            <use xlink:href="#ks3zdeei8a"/>
                        </mask>
                        <use fill="#B51212" xlink:href="#ks3zdeei8a"/>
                        <g mask="url(#tfumzvmrdb)">
                            <g>
                                <path fill="#546B94" d="M22.424 5.193s3.857-.677 5.4 2.95c.915 2.177.289 4.064.289 4.064s-2.17-1.306-3.278-.823c0 0 .385-1.693.192-3.095-.192-1.403-2.603-3.096-2.603-3.096M23.631 14.127s1.815 1.554 2.086 3.673c0 0-1.78-.786-2.51-.325-.729.462-.915.957-.881 1.025.034.069.22.393.373.325.152-.068.203-.393.458-.58.254-.189.695-.36 1.39-.172s1.12.923 1.272 1.59c.153.666-.237 1.537-.543 1.981-.305.444-1.034.94-1.475 1.06-.44.12-.577.034-.627.034-.051 0-.984-1.008-.984-1.008s.254-.872-.44-1.436c-.696-.563-2.646-1.093-4.121-.563-1.476.53-1.611 1.418-1.493 1.725.119.308.051.222.051.222s-.848-.683-1.255-.99c-.407-.308-1.153-.599-1.153-.599s-.203-.785-.407-.973c0 0 3.426-.086 6.003-1.367 2.578-1.282 3.9-2.82 4.256-3.622M14.244 30.092c-1.162 1.483-3.026 3.233-5.93 3.427-.896.097-1.041.049-1.041.049s.484-1.847 1.137-2.382c.654-.535 1.38-.85 1.38-.85s-.484-.9-.17-1.58c0 0-1.016-.535-1.524-1.288-.509-.754-.75-1.24-.218-2.212 0 0-.484-.194-.34-.802.146-.607.195-.461.195-.461s-.969-1.386-1.84-1.701c0 0-.145.121-.63.194-.484.073-.58-.267-.58-.267s-1.961.923-2.639 2.284C1.366 25.863.06 28.1.398 30.846c.339 2.746 1.331 3.135 1.331 3.135l.436.17 12.099 4.526s3.175-7.297 3.441-8.9c.267-1.604-.508-2.99-.508-2.99s-1.67-.437-1.815-1.19c-.015-.076.024 3.013-1.138 4.495z" transform="translate(2.743 12.618)"/>
                                <path fill="#D1DEE3" d="M6.318 18.653s1.712.826 2.176 2.09c.465 1.264.49 1.75.49 1.75s-1.737-.632-2.446-.778l-.709-.146s.93-.218 1.076-1.118c.147-.899-.22-1.555-.587-1.798" transform="translate(2.743 12.618)"/>
                                <path fill="#EEF5F7" d="M27.353.971c.799-1.078 4.932-1.913 5.488 1.948.972.696 2.5 1.565 2.257 3.026-.243 1.46-.972 2.017-.972 2.017s0 1.009.833 1.704c.834.696 1.876 1.948 1.876 3.444 0 1.495-.105 1.912-.105 1.912s.278.627.278.87c0 .244.521.8.417 1.252 0 0 .521.244 1.39-1.495.868-1.74.242-2.54.242-2.54s.938-1.043 1.042-2.365c.105-1.321-.208-1.634-.208-1.634s-.695-.105-.625-.487c.07-.383.278-1.287 1.111-.035.834 1.252.486 3.06-.139 4.487.59 1.391.59 2.608 0 3.547.382.661.973 1.53.417 2.678s-1.771 1.913-1.771 1.913.868-.07 1.424.313c1.667-.243 3.473-1.426 4.237-3.234 0 0-.313-.626.139-.904.451-.279 1.215.07.799 1.252-.417 1.182-1.494 2.087-1.494 2.087s.556 1.321.278 1.947c-.278.626-1.84 1.704-2.848 1.078.07.592-.139.94-.139.94s.486.278 1.598.173c1.111-.104 1.493-.87 1.493-.87s.556.383 0 .905c-.555.522-1.215.974-2.153.87.417 1.078.139 1.808-.208 2.156-.348.348-.8.522-1.355.383.035.904-.417 1.078-1.632 1.217-.313 1.252-2.327 1.043-2.327 1.043s-1.036 3.719-6.831 9.137l-15.875-1.03s3.882-7.863 3.882-9.637-.556-2.295-.556-2.295-.695-.07-1.077-.383-.938-.94-.903-1.426c0 0 .14 2.052-.139 2.782-.278.73-1.597 4.626-4.758 5.287-3.16.66-3.056.522-3.056.522s.086-2.364 2.37-3.234c0 0-.575-.765-.205-1.513 0 0-.741-.54-1.401-1.096-.66-.557-.942-1.168-.315-2.48-.519-.442-.745-1.185-.146-1.196 0 0-.407-1.472-2.144-1.82-.104.487-.623.224-1.058-.062-.435-.286-.713.097-.783-.355-.07-.452 1.355-.417 2.223-.209.868.209 3.056 1.078 3.056 1.078s-.173-1.46-.937-2.573-2.883-2.505-5.8-2.47c.243.765-.452.626-.66.626-.209 0-.66-.07-.66-.07s-.556.036-.66-.382c-.104-.417-.139-.835.556-.835.694 0 1.076.174 1.076.174s1.841-.243 4.168.418c0 0 0-1.148.695-1.322.694-.174 1.146-.243 2.188 1.322 1.042 1.565 1.215 1.287 1.215 1.287s.278-.87 1.077-.835c.799.035 2.188.556 2.535 2.052.938.313 2.084 1.252 2.188 1.322.105.07-.034-.487.556-1.148.59-.661 2.5-1.044 3.82-.626 1.32.417 2.228.847 2.017 2.163.345.723 1.248.967 1.248.967s1.35-.088 2.03-1.366c.68-1.277.193-3.364-1.578-3.399-1.146.104-1.292.825-1.292.825s-.653-.234-.271-.686c.382-.452 1.632-1.53 3.369-.174 0 0-.278-2.226-1.459-3.2-1.18-.973-2.05-1.704-3.3-1.6-1.25.105-1.562.418-1.562.418s.451.417.208.765c-.243.348-.417.313-.417.313s.104.557-.278.73c-.382.174-.66-.313-.66-.904s.244-1.287 1.563-1.739c1.32-.452 2.084-.417 3.439-.07 0 0 .243-1.217 1.215-1.252.973-.034 1.332-.424 3.549.832 0 0 .272-2.188.098-3.023-.173-.834-2.225-4.668-5.836-4.038-.52.178-1.388.943-1.388.943l-.208.417s.243.452 0 .661c-.243.209-.8.522-1.077.417-.278-.104-.799-.556-.382-1.321.417-.765 1.32-1.183 1.32-1.183s-.104-.487.382-.8c.486-.313.972-.487.972-.487s-2.049.07-3.646.73c-1.598.662-3.196 1.948-3.751 2.61.277.312.486.556.173.869l-.312.313s.208.278-.105.487c-.312.208-1.007-.278-.868-.87.14-.591 1.146-2.886 5.106-4.486 3.959-1.6 7.814.034 8.613.417-.417-1.044-.695-1.809.104-2.887z" transform="translate(2.743 12.618)"/>
                                <path fill="#FFF" d="M28.957.492c.496-.257 1.505-.124 1.835-.028.853.248 1.695 1.249 1.98 2.063.05.141-.16.063-.199-.006-.299-.542-1.114-.855-1.662-1.08-.178-.072-.363-.143-.55-.196-.096.462-.676.515-1.126.342-.12.018-.238-.004-.34-.104-.024-.023-.042-.08-.054-.15-.06-.064-.106-.135-.13-.212-.04-.133-.043-.244-.016-.338-.098-.127.053-.227.262-.291" transform="translate(2.743 12.618)"/>
                                <path fill="#FFF" d="M28.322.568c.485-.15.238.626-.059.741-.306.12-.484 1.255-.494 1.59-.011.353.066.662.151 1 .004.015-.02.01-.026.005-.983-.865-.919-2.918.428-3.336M32.437 7.402c.465.25.936-.27 1.145-.604.47-.749.283-1.59-.198-2.24-.025-.034.032-.04.051-.023.738.645 1.308 1.733.948 2.718-.375 1.024-1.69 1.246-2.59.879-.526-.215.23-.952.644-.73M17.54 4.364c1.663-1.112 3.953-1.371 5.887-1.123 1.785.23 3.94.835 4.8 2.582.05.1.044.482-.147.301-1.337-1.265-3.455-1.948-5.213-2.234-1.854-.302-3.427.14-5.132.83-.158.064-.34-.258-.195-.356" transform="translate(2.743 12.618)"/>
                                <path fill="#FFF" d="M20.991 5.008c.377-.948 1.778-1.124 2.673-.992 1.182.174 2.475.785 3.464 1.448.096.065.166.37-.021.28-1.189-.568-2.119-1.023-3.443-1.026-.58-.001-1.179.007-1.737.185-.257.082-.5.317-.768.307-.083-.004-.205-.108-.168-.202M28.46 7.003c-.005-.01.013-.01.017-.004.879 1.507 1.25 3.321.85 5.072-.087.386-.407.162-.344-.154.337-1.682.217-3.374-.523-4.914M30.243 7.83c-.006-.018.032-.014.038-.002.525 1.046.88 2.258.974 3.434.05.622-.03 1.253-.088 1.87-.062.65-.02 1.271-.013 1.919.001.149-.3.823-.504.496-.585-.94-.159-2.104-.02-3.118.215-1.584.072-3.082-.387-4.6M34.147 9.402c1.778 1.124 3.175 2.97 2.626 5.224-.025.103-.144.23-.282.324-.085-.062-.176-.11-.271-.156-.036-.018-.07-.02-.103-.015-.02-.008-.039-.018-.059-.025-.027-.01-.054-.011-.08-.008.021-.921-.137-1.919-.55-2.747-.177-.352-.429-.662-.63-1-.29-.488-.492-1.049-.713-1.573-.016-.037.043-.035.062-.024M39.723 13.011c.716-1.358.852-2.9.093-4.294-.005-.01.014-.01.018-.004.986 1.336 1.163 3.259.16 4.668-.154.218-.349-.22-.27-.37M39.094 16.688c.85-.53.67-2.321.396-3.116-.065-.187.155-.147.228-.047.844 1.166.728 3.13-.605 3.862-.351.192-.254-.552-.02-.699M37.945 20.992c.53-.371 1.06-.845 1.353-1.439.12-.245.154-.477.198-.74.063-.38.336-1.033.16-1.384-.022-.043.011-.082.055-.08.704.041.563 1.29.45 1.765-.257 1.085-1.295 1.988-2.172 2.568-.408.27-.3-.51-.044-.69M41.494 21.066c.668-.35 1.333-.641 1.912-1.143.778-.673 1.135-1.494 1.619-2.362.006-.01.026-.004.029.005.313.943-.508 1.977-1.126 2.61-.584.598-1.412 1.242-2.266 1.356-.184.024-.34-.376-.168-.466M41.55 23.055c.499-.36 1.734-.584 1.515-1.434-.007-.029.048-.02.06-.01.851.687-.414 1.786-1.128 2.005-.174.053-.564.226-.688-.008-.098-.187.098-.449.241-.553" transform="translate(2.743 12.618)"/>
                                <path fill="#FFF" d="M42.981 22.899c.315-.17.583-.445.637-.812.001-.009.018-.006.02.001.132.437-.03.953-.458 1.15-.152.07-.346-.26-.199-.34M38.37 21.369c.407-.178 1.062-.41 1.454-.082.28.234.49.818.27 1.134-.004.006-.017.004-.019-.003-.102-.314-.34-.37-.655-.456-.368-.1-.684-.066-1.029.09-.169.076-.378.045-.399-.167-.02-.212.2-.439.378-.516M37.647 22.593c.624-.266 1.195.043 1.707.409.021.015-.001.03-.02.026-.546-.108-1.087.171-1.627.15-.242-.01-.257-.5-.06-.585M34.813 24.17c1.129-.134 2.263-.932 3.241.01.013.012.002.029-.013.03-.517.005-1.042.116-1.537.267-.582.177-1.17.48-1.788.404-.276-.034-.14-.684.097-.712M31.43 19.07c0-.01.019-.006.02.002.027.527.26.928.645 1.283.11.103.085.3-.083.18-.465-.326-.676-.92-.583-1.466M29.102 15.277c.956-.447 2.002.418 2.27 1.311.328 1.097-.127 2.05-1.208 2.394-.203.065-.343-.114-.3-.302.067-.29.32-.44.437-.71.13-.299.114-.67.04-.977-.151-.637-.692-1.202-1.205-1.578-.03-.022-.096-.11-.034-.138M27.126 12.015c.632.229 1.213.596 1.68 1.077.415.427.964 1 .783 1.614-.045.154-.363.603-.575.395-.415-.408-.619-.943-1.025-1.367-.384-.4-.847-.722-1.363-.93-.85-.344-1.627-.188-2.497-.23-.02 0-.059-.01-.059-.037.003-1.234 2.418-.753 3.056-.522M27.318 19.884l.06-.13c.062-.128.235-.397.42-.339.4.127.803.42.859.867.026.21-.02.398-.06.605-.031.16-.048.313-.178.421-.092.077-.246-.098-.226-.19.042-.192-.302-.456-.43-.59-.134-.138-.29-.25-.428-.383-.058-.057-.047-.198-.017-.261M26.345 18.751c.028-.093.086-.112.166-.09.11.032.175.02.264.101.16.147.275.354.312.578.003.017-.007.046-.024.052-.153.062-.387-.083-.503-.189-.046-.043-.104-.075-.144-.123-.07-.083-.102-.222-.07-.329M24.451 14.005c1.53.601 1.945 2.151 2.427 3.572.03.088-.135.034-.16-.016-.283-.59-.545-1.255-.926-1.787-.396-.553-.953-.866-1.423-1.338-.103-.103-.173-.532.082-.431" transform="translate(2.743 12.618)"/>
                                <path fill="#FFF" d="M20.234 12.839c.686-.517 1.819-.367 2.61-.21.847.168 1.64.495 2.364.96 1.243.795 2.146 1.809 2.619 3.216.073.217-.136.399-.263.151-.629-1.223-1.48-2.444-2.691-3.153-.705-.412-1.485-.684-2.294-.804-.775-.115-1.562-.011-2.331-.138-.01-.001-.026-.013-.014-.022M19.118 14.04c0-.003 0-.006.002-.009.002-.05.044-.13.1-.105h.026l-.012.013c.193.249.225.456.095.622-.012.018-.024.034-.038.05-.094.117-.24.065-.279-.08-.043-.166 0-.365.106-.49M18.656 14.801c.054-.027.103-.043.161-.056.029-.007.07.023.082.056.06.16.02.355-.086.462-.156.158-.33-.373-.157-.462M24.92 23.907c1.11-1.389 2.865-.3 3.865.653.055.053-.038.065-.076.036-.644-.5-1.647-.893-2.493-.695-.672.158-.804.383-.704.905.068.359.343.878.799.827.447-.05.143.747-.213.766-1.383.075-2-1.461-1.178-2.492" transform="translate(2.743 12.618)"/>
                                <path fill="#FFF" d="M25.422 23.004c.993-.482 2.39.133 2.868 1.068.06.117.048.424-.152.34-.568-.244-1.003-.654-1.632-.772-.635-.12-1.855.084-1.48 1.072.032.086-.122.026-.145-.007-.431-.613-.095-1.392.54-1.7M15.538 22.295c.695-.488 1.711-.564 2.46-.153.394.216-.415.837-.743.675-.803-.398-1.986-.048-1.966.953 0 .045-.078.022-.092 0-.35-.52-.16-1.123.34-1.475M19.396 19.824c.407.132-.116.82-.46.738-.165-.04-.377-.081-.552-.054-.213.033-.665.286-.815.441-.117.12-.19.285-.339.37-.048.027-.144-.016-.15-.074-.103-1.098 1.393-1.718 2.316-1.42M12.164 17.973c.324.143-.139.782-.403.748-.468-.06-.875-.211-1.26.162-.164.16-.216.243-.437.127-.022-.011-.058-.047-.051-.077.222-.977 1.314-1.329 2.151-.96M11.538 20.604c.99-.882 3.342-.357 3.936.793.135.262-.321.87-.61.629-.466-.392-.852-.781-1.442-1-.577-.214-1.198-.212-1.802-.298-.048-.007-.136-.077-.082-.124M6.523 16.752c.368-.576 1.165-.49 1.717-.228.55.26.949.704 1.26 1.217.167.275-.364.9-.63.646-.42-.399-.802-.928-1.34-1.166-.327-.145-.692-.076-.957-.32-.028-.027-.078-.106-.05-.149M.99 17.306c.128-.127.375-.252.514-.072.077.1.12.332-.007.417-.028.02-.075.02-.108.027-.037.008-.072.011-.11.015-.002 0-.379.125-.43.037-.082-.143.043-.326.142-.424M2.484 17.4c1.72-.493 3.737.016 5.113 1.19.126.107.124.587-.106.45-1.578-.947-3.15-1.469-4.984-1.594-.02-.001-.06-.036-.023-.046M6.957 22.085c.765.142 1.561.59 2.179 1.043.382.28 1.01.696 1.082 1.204.002.018-.03.014-.036.006-.867-.955-2.098-1.424-3.214-2.016-.089-.047-.19-.27-.011-.237M9.061 23.797c.443.404.951.862 1.15 1.427.05.146-.166.06-.21.006-.184-.224-.303-.512-.46-.755-.15-.234-.303-.464-.488-.675-.004-.004.006-.005.008-.003M9.343 20.231c1.096.709 2.305 1.47 2.518 2.87.028.182-.168.185-.247.059-.274-.438-.446-.921-.757-1.34-.442-.594-.98-1.086-1.528-1.58-.009-.008.008-.012.014-.009" transform="translate(2.743 12.618)"/>
                                <path fill="#FFF" d="M10.983 20.916c1.016.215 3.113.538 3.144 1.823.002.09-.062.368-.227.288-.418-.203-.542-.552-.93-.878-.178-.15-.375-.284-.566-.419-.439-.31-.923-.598-1.426-.802-.01-.004-.006-.014.005-.012M10.364 22.014c.434.43.79.879.88 1.514.033.235-.222.111-.255-.043-.108-.513-.276-1.078-.633-1.468-.004-.004.005-.005.008-.003M12.914 24.558c.51-.404 1.193-.803 1.863-.54.11.042.286.39.071.39-.882 0-1.456.356-2.1.9-.539.454-.776.908-1.12 1.499-.008.013-.04.004-.039-.012.035-.983.567-1.638 1.325-2.237M28.77 30.36c.527-.234.823-1.17.945-1.68.21-.871.113-1.735-.058-2.602-.031-.162.185-.066.219.024.383 1.011.502 2.007.18 3.053-.156.508-.653 1.893-1.283 1.84-.273-.023-.195-.55-.003-.635M32.116 28.526c.172-.784.845-1.29 1.608-1.434.208-.04.247.208.208.354-.055.203-.235.381-.44.421-.646.125-.752 1.092-.504 1.554.027.05.078.197-.007.23-.645.243-.98-.605-.865-1.125M34.797 25.35c.26.181.007.863-.3.712-.835-.408-1.398.53-1.89 1.074-.051.056-.185-.015-.17-.089.182-.845 1.337-2.413 2.36-1.698" transform="translate(2.743 12.618)"/>
                                <path fill="#FFF" d="M33.441 25.107c1.179-.415 3.884.024 3.72 1.77 0 .008-.018.005-.02-.002-.4-1.433-2.46-1.374-3.6-1.208-.225.032-.293-.492-.1-.56" transform="translate(2.743 12.618)"/>
                                <path fill="#FFF" d="M33.086 26.234c.574-.5 1.38-.421 2.068-.25.432.107.908.273 1.053.744.009.027-.05.017-.058 0-.243-.48-1.043-.504-1.488-.51-.522-.007-.914.113-1.395.317-.121.052-.282-.212-.18-.3M35.261 24.726c1.174-.374 2.524-.166 3.342.763.02.023-.026.027-.04.014-.887-.821-2.093-.385-3.168-.435-.143-.007-.323-.282-.134-.342M36.666 23.34c.838-.337 1.965-.113 2.69.372.018.011-.006.02-.017.013-.411-.212-.812-.247-1.269-.232-.426.014-.843.166-1.265.156-.1-.002-.268-.257-.139-.309" transform="translate(2.743 12.618)"/>
                                <path fill="#FFF" d="M31.939 22.703c.988.567 1.936.618 3.056.638.948.016 1.87.073 2.767-.278.277-.108.304.501.073.604-1.014.452-2.328.375-3.405.182-.898-.161-1.89-.469-2.535-1.126-.026-.027.029-.028.044-.02" transform="translate(2.743 12.618)"/>
                                <path fill="#FFF" d="M31.912 22.207c1.084.542 2.277.842 3.495.718.744-.075 1.398-.3 2.007-.733.392-.28.711-.548 1.189-.656.218-.05.294.493.1.557-.587.192-1.002.62-1.527.92-.523.3-1.14.48-1.743.505-1.297.053-2.512-.558-3.54-1.298-.016-.012.007-.02.02-.013" transform="translate(2.743 12.618)"/>
                                <path fill="#FFF" d="M33.43 21.778c.787.135 1.705.096 2.44-.228.235-.104.35.303.205.43-.684.603-1.946.193-2.662-.17-.032-.015-.013-.037.018-.032M34.57 21.155c.337-.113.667-.274.994-.415.315-.135.709-.276.901-.583.132-.21.324.152.287.29-.256.95-1.43.862-2.172.733-.011-.002-.027-.019-.01-.025M35.188 20.17c.632-.475 1.246-.947 1.625-1.657.11-.208.333.13.278.277-.306.832-.937 1.416-1.845 1.44-.019 0-.091-.034-.058-.06" transform="translate(2.743 12.618)"/>
                                <path fill="#FFF" d="M36.074 19.253c.409-.277.779-.594 1.063-1.003.177-.256.316-.53.432-.819.065-.162.072-.289.236-.354.016-.006.045.004.052.02.19.443-.074.96-.294 1.357-.317.569-.794 1.09-1.368 1.403-.318.174-.33-.463-.121-.604M41.246 27.904c.178-.233.284-.4.32-.702.023-.198.083-.812-.092-.954-.017-.014-.021-.043.006-.048.289-.054.351.406.382.6.072.456.093 1.275-.414 1.51-.183.084-.291-.29-.202-.406M40.607 27.809c.057-.008.097-.009.152-.003.032.003.05-.005.079-.016.035-.013.057-.022.072-.057.005-.01.005-.022.008-.033.009-.025.02-.033.035-.058.004-.008.02-.006.027-.004.163.062.196.247.14.388-.034.087-.092.148-.182.191-.03.015-.062.026-.096.032-.08.014-.12-.008-.19-.05-.072-.044-.116-.142-.123-.217-.004-.05.003-.162.078-.173M37.915 29.435c.416-.327.757-.651.793-1.193.027-.399-.125-.821-.361-1.147-.007-.01.013-.008.017-.005.496.35.786.839.713 1.448-.063.526-.429 1.19-.987 1.355-.209.062-.31-.351-.175-.458" transform="translate(2.743 12.618)"/>
                                <path fill="#FFF" d="M37.868 29.348c.123-.223.27-.393.318-.652.053-.275.029-.57.03-.849 0-.01.018-.004.02.001.148.343.265.687.229 1.065-.023.231-.127.651-.393.71-.124.026-.263-.169-.204-.275" transform="translate(2.743 12.618)"/>
                                <path fill="#FFF" d="M36.8 30.185c.4-.242.641-.406.743-.892.071-.336.065-.847-.058-1.17-.004-.01.016-.007.02-.003.3.382.419.838.418 1.317-.002.657-.455 1.137-1.04 1.397-.362.162-.312-.511-.084-.649" transform="translate(2.743 12.618)"/>
                                <path fill="#FFF" d="M37.45 29.798c.201-.07.328-.135.385-.331.038-.131.05-.259.058-.394.01-.164.26.021.273.11.044.3.067.615-.119.883-.124.18-.333.365-.578.3-.21-.056-.219-.499-.019-.568M20.515 21.268c1.488.646 3.028 1.353 4.112 2.628.272.32-.444.943-.74.643-1.105-1.121-2.055-2.324-3.406-3.164-.069-.043-.061-.148.034-.107M20.873 22.85c.812.412 1.874.86 2.407 1.618.125.179-.098.808-.337.583-.34-.32-.585-.743-.904-1.087-.365-.391-.761-.734-1.215-1.025-.084-.053-.043-.136.05-.09M21.11 24.212c.132.05.27.043.404.08.194.051.39.14.564.235.15.083.307.176.436.288.156.137.118.267.093.47-.014.115-.134.327-.282.29-.141-.036-.194-.056-.272-.178-.052-.082-.095-.169-.148-.25-.21-.317-.492-.691-.829-.882-.05-.028-.012-.071.035-.053M20.513 25.252c.22.42.43.845.648 1.265.105.203-.1.329-.2.12-.214-.452-.427-.906-.647-1.356-.075-.156.142-.138.2-.029M19.384 29.606c.19-1.312-.007-2.611-.494-3.84-.077-.197.185-.115.241.01.825 1.85 1.309 4.728.08 6.501-.13.19-.565.398-.558.006.014-.894.6-1.778.731-2.677" transform="translate(2.743 12.618)"/>
                                <path fill="#FFF" d="M16.755 33.614c.153-.52.496-.986.7-1.494.2-.502.373-1 .478-1.531.242-1.218.406-2.952-.43-3.981-.068-.083-.003-.183.097-.115.92.623 1.162 1.913 1.24 2.943.111 1.454-.29 3.239-1.37 4.298-.209.205-.867.397-.715-.12" transform="translate(2.743 12.618)"/>
                                <path fill="#FFF" d="M16.399 33.946c.119-.592.534-1.09.787-1.634.26-.559.473-1.144.621-1.744.305-1.236.287-2.63-.245-3.802-.014-.032.044-.023.056-.006 1.618 2.227.856 5.272-.764 7.312-.16.203-.527.227-.455-.126M27.095 31.84c.066-.438.706-.63.96-.919.65-.743.964-2.27.898-3.182-.005-.072.125-.014.14.02.257.58.191 1.168.147 1.787-.058.82-.284 1.637-.942 2.167-.23.184-1.31.834-1.203.127M27.712 36.983c.066-.438.706-.629.96-.919.65-.743.964-2.27.898-3.182-.005-.071.125-.014.14.021.257.579.192 1.167.148 1.786-.059.82-.285 1.637-.943 2.167-.23.184-1.31.834-1.203.127M26.511 30.395c.416-.422.917-.77 1.05-1.376.005-.02.049-.01.052.007.136.701-.354 1.349-.869 1.803-.17.15-.358-.307-.233-.434M21.17 36.599c.566-.454 1.112-.778 1.51-1.413.25-.398.446-.845.574-1.298.006-.02.049-.012.05.007.058.673-.098 1.297-.459 1.867-.332.523-.868 1.135-1.513 1.2-.152.015-.286-.263-.162-.363M28.081 32.733c.487-.205 1.005-.281 1.472-.552.496-.288.9-.685 1.149-1.181.003-.007.022-.003.02.004-.199.542-.477 1.04-.908 1.45-.358.339-1.104.908-1.656.79-.18-.039-.256-.435-.077-.51" transform="translate(2.743 12.618)"/>
                                <path fill="#FFF" d="M25.75 37.19c.486-.205 1.004-.28 1.471-.552.496-.287.9-.685 1.15-1.18.002-.007.022-.004.02.004-.2.541-.477 1.04-.909 1.449-.358.34-1.104.908-1.656.79-.179-.038-.256-.435-.076-.51M30.844 32.925c.581-.634 1.21-1.339 1.21-2.266 0-.009.02-.006.02.003.026.494.053.923-.109 1.398-.158.463-.464 1.072-.912 1.315-.225.122-.336-.31-.209-.45M27.004 35.462c.58-.634 1.21-1.338 1.21-2.266 0-.009.02-.006.02.003.025.495.053.923-.11 1.399-.157.462-.464 1.071-.911 1.314-.226.123-.336-.31-.209-.45M33.002 31.973c.094-.193.102-.258.151-.523.048-.257.074-.326.042-.545-.012-.083.095-.037.111.014.14.454.126.996-.099 1.406-.092.168-.278-.204-.205-.352M33.05 33.653c.97-.59 1.66-1.603 1.584-2.787-.001-.01.017-.008.02 0 .372 1.276-.17 2.941-1.523 3.411-.286.1-.257-.516-.081-.624M29.553 36.328c.97-.591 1.66-1.604 1.583-2.787 0-.01.018-.009.02 0 .372 1.275-.17 2.94-1.522 3.41-.287.1-.258-.516-.081-.623M25.104 33.348c.602-.11 1.165-.31 1.631-.698.024-.02.097.002.074.035-.36.511-.902.899-1.557.985-.149.02-.324-.29-.148-.322M24.058 35.08c.336-.16.665-.35.964-.576.056-.042.189.05.131.114-.272.3-.567.552-.915.753-.139.081-.334-.216-.18-.29M29.129 22.836c1.629.128 2.175 1.935 2.415 3.316.014.08-.114.036-.133-.013-.44-1.167-1.012-2.378-2.323-2.697-.211-.052-.198-.625.04-.606M24.798 22.035c.472-.391.885-.746 1.107-1.348.309-.837.077-1.984-.522-2.638-.013-.014.015-.017.023-.01.685.643 1.082 1.299.98 2.274-.087.831-.588 1.79-1.385 2.104-.157.062-.326-.28-.203-.382M25.47 5.282c1.317.53 2.323 1.341 2.984 2.616.688 1.326.85 2.99.26 4.377-.082.193-.283.179-.344-.019-.148-.48.042-1.01.04-1.505-.002-.703-.135-1.438-.36-2.106-.448-1.338-1.432-2.556-2.6-3.343-.021-.014.004-.026.02-.02M33.28 3.216c.943.48 1.56 1.65 1.692 2.656.025.192-.23.047-.259-.06-.518-1.908-2.395-2.424-4.185-2.424-.005 0-.016-.005-.01-.011.729-.68 1.918-.59 2.762-.16M32.028 9.386c1.487-.84 3.45.447 3.697 1.986.038.234-.292.74-.443.346-.58-1.518-1.813-1.954-3.25-2.32-.007-.002-.01-.009-.004-.012M42.008 21.644c.842-.448 1.455-1.167 1.982-1.958.196-.295.387-.597.565-.904.201-.348.278-.775.52-1.086.004-.005.016-.005.019.001.406.884-.555 2.055-1.04 2.737-.494.694-1.066 1.232-1.87 1.506-.115.04-.296-.232-.176-.296M35.056 15.03c.392-.572 1.08-.376 1.491.056.177.185.333.417.394.675.071.304-.044.558-.182.821-.055.107-.264.35-.367.13-.146-.313-.117-.652-.32-.942-.131-.186-.31-.392-.484-.523-.114-.086-.23-.106-.363-.042-.078.038-.228-.09-.17-.176M33.94 14.614c.022-.01.053-.009.076-.002.004 0 .029.014.054.03-.02-.021-.017-.024.014-.005.02.014.026.017.019.01.023.01.045.018.07.024.046.01.083.009.125.034.048.028.08.072.115.112.073.083.144.331-.013.378-.052.016-.092.035-.148.027-.054-.008-.083-.03-.122-.064-.115-.096-.19-.214-.241-.35-.022-.06-.02-.162.05-.194M33.904 11.25c.269.266.564.47.771.793.247.386.404.844.36 1.305-.023.24-.266.457-.386.14-.112-.297-.088-.643-.163-.954-.096-.4-.298-.97-.606-1.273-.013-.014.015-.019.024-.01M33.005 11.113c.769.854 1.445 1.886 1.008 3.053-.076.204-.27.046-.316-.08-.095-.264.016-.446.016-.75 0-.302-.03-.608-.112-.9-.13-.465-.328-.925-.615-1.32-.006-.008.015-.008.02-.003M32.711 12.764c-.004-.013.027-.01.03 0 .15.454.318.984.21 1.46-.025.105-.214-.02-.212-.095.012-.475.1-.893-.028-1.365M31.998 17.503c.306-.258.679-.379.964-.68.252-.268.416-.536.473-.906.002-.013.03-.007.03.005.008.455-.089.935-.363 1.304-.194.26-.608.682-.967.591-.107-.027-.25-.218-.137-.314M32.246 15.877c.256-.227.476-.45.562-.781.004-.017.041-.009.04.008-.024.327-.169.69-.476.867-.053.03-.186-.041-.126-.094M33.867 16.992c.408-.237.768-.674.669-1.141-.003-.014.027-.012.031-.003.262.522.152 1.249-.488 1.493-.171.065-.373-.257-.212-.35M29.568 4.673c.231.141.414.354.536.599.005.01-.014.01-.019.004-.148-.232-.34-.406-.57-.547-.066-.04.002-.087.053-.056M28.895 2.625c.535-.82 1.887-.974 2.51-.198.01.012-.017.012-.023.01-.359-.187-.935-.008-1.305.105-.357.11-.664.264-.948.51-.186.161-.315-.303-.234-.427M28.42 3.229c.026-.018.07.01.074.048.006.05.015.1.023.15.005.027.05.156.024.108.038.07.089.21.024.282-.065.072-.145-.04-.176-.107-.043-.092-.07-.194-.067-.303.004-.097.034-.134.098-.178M13.719 28.907c.24-.956.317-1.856.046-2.81-.019-.066.092-.034.11.005.436.962.542 2.116.128 3.11-.096.23-.319-.169-.284-.305M9.836 28.487c.053-.086.189.049.197.107.055.434.544.862.84 1.154.144.143.3.273.457.4.076.063.115.099.134.118.001-.008.017-.012.076.005.199.058.285.1.224.36-.014.06-.04.113-.072.164.332.061.622-.02.992-.15.293-.105.245.547.053.652-.516.282-1.143.47-1.674.147-.35-.213-.706-.572-.884-.98-.1-.124-.184-.25-.245-.357-.145-.258-.175-.547-.183-.838-.006-.253-.055-.556.085-.782M8.207 25.665c.116-.285.253-.291.538-.292.017 0 .06.015.043.04-.269.42-.273.8.008 1.23.18.275.484.428.629.721.076.154.052.555-.186.546-.667-.024-1.025-.75-1.124-1.354-.048-.298-.023-.61.092-.89M8.432 24.01c.172.118.33.247.455.414.079.105-.025.17-.118.092-.163-.134-.3-.303-.4-.489-.019-.036.049-.026.063-.016M10.675 24.353c.494.424.747 1.163.597 1.807-.058.251-.306-.008-.306-.16-.001-.312-.002-.598-.071-.904-.06-.258-.161-.49-.264-.733-.011-.027.033-.02.044-.01M9.01 19c.47.364.992.75 1.31 1.272.09.148-.004.328-.155.172-.427-.441-.749-.99-1.178-1.435-.014-.014.015-.017.024-.01M12.226 18.319c.784.298 1.078 1.164 1.21 1.914.04.22-.209.283-.29.077-.191-.483-.417-.918-.856-1.23-.407-.29-.897-.256-1.37-.292-.006 0-.017-.003-.016-.012.042-.57.913-.612 1.322-.457M35.157 29.289c.688.61.558 1.753.265 2.532-.07.187-.3-.066-.27-.198.164-.715.42-1.655-.038-2.324-.016-.023.033-.019.043-.01" transform="translate(2.743 12.618)"/>
                                <path fill="#FFF" d="M35.522 28.805c0-.005.01-.004.01 0 .201.453.323.977.236 1.467-.017.096-.207-.007-.197-.088.056-.478.08-.906-.049-1.379M35.579 27.989c.651.611.967 1.448.783 2.322-.041.198-.308-.085-.286-.225.119-.75-.04-1.489-.547-2.082-.026-.029.033-.031.05-.015M34.506 32.866c.538-.828.476-1.857.442-2.807-.002-.038.069-.023.077.003.263.844.426 2.376-.296 3.04-.097.089-.286-.138-.223-.236M21.422 25.583c1.37 1.605 1.759 4.333.566 6.173-.137.212-.339-.165-.27-.32.878-1.956.849-4.005-.32-5.845-.009-.014.018-.015.024-.008" transform="translate(2.743 12.618)"/>
                                <path fill="#FFF" d="M23.274 28.943c1.369 1.605 1.758 4.333.565 6.174-.137.211-.338-.166-.269-.32.878-1.957.848-4.006-.321-5.846-.008-.013.019-.015.025-.008" transform="translate(2.743 12.618) rotate(33 23.899 32.06)"/>
                                <path fill="#FFF" d="M17.24 32.098c1.368 1.605 1.757 4.333.565 6.173-.137.211-.339-.165-.27-.32.878-1.957.848-4.006-.32-5.846-.01-.013.018-.014.024-.007" transform="translate(2.743 12.618) rotate(47 17.864 35.214)"/>
                                <path fill="#FFF" d="M20.506 26.489c-.011-.026.037-.022.047-.006.625 1.01.929 2.156.821 3.336-.03.33-.35.037-.334-.181.079-1.1-.077-2.135-.534-3.15M19.813 33.484c.469-.32.865-.63 1.13-1.15.246-.484.426-1.013.559-1.536.003-.013.032-.008.03.006-.078 1.048-.265 2.77-1.537 3.136-.195.056-.33-.354-.182-.456M23.59 26.408c-.002-.01.015-.007.018 0 .36.998.5 2.084.306 3.15-.035.189-.263-.068-.245-.198.143-1.016.161-1.952-.079-2.952M24.897 27.605c.12-.45.143-.89.013-1.334-.003-.009.013-.008.016-.002.221.466.304.986.19 1.509-.036.172-.254-.043-.22-.173M31.074 4.41c.317-.073.775.058 1.073.184.373.16.703.463.767.874.027.17-.203.056-.23-.048-.098-.383-.373-.611-.726-.761-.247-.105-.602-.256-.872-.23-.012.001-.033-.014-.012-.02M31.957 10.306c-.006-.032.052-.018.063-.005.448.572.739 1.31.577 2.042-.045.202-.297-.089-.285-.211.066-.675-.233-1.189-.355-1.826M7.579 32.562c-.063-.055-.057-.11.016-.167l.078-.117c.214-.33.447-.627.72-.913.383-.403.847-.89 1.427-.846.055.004.15.06.117.128-.19.397-.564.519-.804.868-.18.26-.289.575-.459.846-.159.252-.334.479-.61.614-.18.089-.528.159-.584-.118-.027-.13.065-.186.099-.295" transform="translate(2.743 12.618)"/>
                                <path fill="#FFF" d="M8.4 32.409c.206-.463.496-.84.89-1.162.173-.142.525-.202.485.133-.017.138-.03.278-.046.417.133.028.197.164.166.313.047.071.164.13.204.2.09.155.044.306-.025.463-.07.16-.358.506-.542.268-.103-.134-.267-.235-.361-.376-.12.019-.218-.027-.26-.123-.073.142-.22.296-.38.273-.186-.026-.19-.273-.131-.406M11.702 27.747c.379.837.796 1.697.847 2.635.018.342-.28.2-.322-.049-.149-.891-.35-1.733-.635-2.591-.021-.064.092-.035.11.005M28.584 18.454c.3-.387.43-.85.356-1.333-.013-.086.123-.033.143.018.234.595.15 1.249-.23 1.768-.222.302-.428-.248-.27-.453M29.683 20.488c.198-.33.241-.681.163-1.038-.017-.078.107-.033.13.003.27.448.266 1.013-.032 1.452-.074.108-.191.103-.264-.002-.08-.115-.067-.299.003-.415M30.774 19.09c.03-.069.156.016.151.074-.046.584-.105 1.163.002 1.744.104.564.359 1.053.598 1.562.082.175-.1.78-.295.497-.693-1.006-.953-2.722-.456-3.877" transform="translate(2.743 12.618)"/>
                                <path fill="#053468" d="M23.523 5.085c.561.177 1.13.379 1.67.63.071-.032.142-.046.192-.027.355.137.682.296.995.488.179.106.352.226.522.363.09.072.063.182-.01.271.221.203.426.425.61.672.968 1.304.815 3.017.558 4.53-.024.137-.176-.004-.165-.094.168-1.359.056-2.733-.738-3.895-.225-.328-.483-.617-.766-.873-.042.029-.091.051-.143.067l.016.066c.027.122-.088.317-.178.137-.039-.078-.082-.154-.128-.23l-.005-.005c-.788-.796-1.708-1.365-2.778-1.698-.364-.115.103-.478.348-.402" transform="translate(2.743 12.618)"/>
                                <path fill="#053468" d="M24.882 5.703c1.66.684 1.98 2.68 1.707 4.235-.001.01-.021.006-.023-.002-.223-1.58-.636-2.835-1.959-3.838-.173-.131.087-.472.275-.395" transform="translate(2.743 12.618)"/>
                                <path fill="#053468" d="M23.701 5.365c1.413.726 2.355 2.117 2.115 3.75-.002.011-.026.004-.028-.005-.292-1.347-1.177-2.636-2.401-3.332-.22-.124.123-.511.314-.413" transform="translate(2.743 12.618)"/>
                                <path fill="#053468" d="M23.232 5.213c.576.073 1.235.021 1.787.236.433.168.776.547 1.038.917.01.015-.021.012-.027.009-.937-.561-1.993-.604-3.044-.735-.216-.027.042-.453.246-.427" transform="translate(2.743 12.618)"/>
                                <path fill="#D1DEE3" d="M28.803 12.215c.58.41 1.12.89 1.546 1.464.171.23.336.473.424.751.046.145.066.261.094.36.348.076.624.254.837.498.451.41.665.937.708 1.57.023.342-.023.574.187.72.512.011 1.083.005 1.54-.154.33-.114.853-.657.856-1.036.004-.402-.301-.669-.625-.856-.035-.02-.11-.135-.023-.137 1.107-.02 1.46 1.287.708 1.981-.065.06-.136.114-.21.163.024.09-.037.231-.137.293-.599.37-2.496 1.127-2.896.09-.027-.068-.011-.13.026-.182-.023-.02-.041-.046-.049-.085-.14-.708-.372-1.37-.693-2.006l-.02-.008c-.237-.105-.651-.19-.823-.412-.031-.04-.053-.081-.071-.123-.042-.055-.06-.115-.052-.172-.027-.148-.03-.305-.076-.463-.243-.82-1.068-1.488-1.733-1.958-.408-.29.206-.494.482-.298M30.874 6.835c.026-.215.212-.09.204.072-.03.611.256 1.093.78 1.423.72.452 1.226.441 2.016-.027.08-.047.26-.07.286.054.06.282.168.515.317.763.021.035.036.163-.045.133-.27-.098-.456-.25-.624-.458-.608.406-1.495.397-2.134.066-.64-.332-.88-1.364-.8-2.026M34.991 19.12c.639.044 1.384-.122 1.823-.613.17-.19.31-.41.42-.643.141-.3.133-.56.198-.868.027-.125.337-.378.437-.205.38.655-.207 1.552-.685 2.008-.347.332-.822.588-1.292.664-.368.06-.607-.107-.905-.309-.016-.01-.021-.035.004-.034" transform="translate(2.743 12.618)"/>
                                <path fill="#D1DEE3" d="M31.75 17.934c-.005-.233.552-.348.625-.111.184.602-.147.997-.47 1.481-.552.83-.109 1.594.616 2.156 1.65 1.28 3.684 1.005 5.396.01.028-.015.096.018.067.05-.598.674-1.403 1.063-2.26 1.204-.032.086-.096.165-.17.177-1.252.21-3.379.022-3.85-1.372-.33-.306-.6-.667-.722-1.077-.308-1.034.794-1.546.769-2.518M41.634 23.178c.503.104 1.35-.094 1.657-.49.16-.206.234-.473.278-.725.028-.16.111-.752-.05-.908-.017-.017-.048-.06-.022-.084.203-.18.337.125.413.288.205.44.247.952.086 1.411-.132.376-.413.754-.79.923-.377.169-1.032.249-1.434.176-.365-.067-.661-.7-.138-.591M41.654 25.336c.966.35 1.82-.216 2.367-.971.048-.065.158.041.14.1-.387 1.254-1.715 1.616-2.886 1.256-.362-.11.124-.477.379-.385" transform="translate(2.743 12.618)"/>
                                <path fill="#D1DEE3" d="M40.778 27.914c.144.111.507-.235.587-.325.129-.145.217-.332.267-.516.117-.423.114-1.061-.145-1.43-.011-.015-.016-.037.002-.05l.105-.074c.025-.018.055-.005.078.006.752.377.784 1.56.39 2.174-.401.624-1.114.884-1.796.535-.285-.146.26-.516.512-.32" transform="translate(2.743 12.618)"/>
                                <path fill="#D1DEE3" d="M39.187 29.03c.015-.03.218-.212.243-.17-.036-.06-.244.081-.022-.08.14-.1.415-.187.471-.361.079-.24-.082-.666-.151-.876-.02-.058.05-.049.08-.027.331.252.999.732.594 1.22-.22.264-.713.594-1.07.54-.143-.022-.222-.104-.145-.247M36.98 30.157c1.382-.277 2.4-1.641 1.688-2.986-.01-.02.027-.016.036-.01.59.493.646 1.28.337 1.942-.403.863-1.266 1.366-2.196 1.48-.331.04-.065-.386.135-.426" transform="translate(2.743 12.618)"/>
                                <path fill="#D1DEE3" d="M33.341 26.989c1.773-.499 3.401.81 3.713 2.58.067.378.16 1.349-.546 1.016-.166-.078-.206-.173-.173-.253h-.011c.366-1.821-1.345-3.187-2.96-3.304-.017-.002-.057-.03-.023-.04M31.421 27.884c.117-.151.697-.173.668.099-.059.54-.308 1.094-.027 1.618.327.609 1.162.697 1.716.271.039-.03.102.036.098.072-.087.772-1.219.73-1.752.477-.88-.418-1.319-1.74-.703-2.537" transform="translate(2.743 12.618)"/>
                                <path fill="#D1DEE3" d="M26.816 32.836c.935-1.017 2.256-1.539 2.98-2.751.774-1.296.954-2.665.218-4.028-.032-.059.036-.086.08-.051 1.322 1.073 1.264 2.899.492 4.262-.786 1.39-2.18 2.076-3.555 2.818-.21.113-.391-.058-.215-.25M23.882 22.576c1.019-.369 2.347-.24 3.349.135 1.143.428 1.735.977 2.252 2.079.025.054-.055.033-.074.012-.723-.765-1.806-1.566-2.851-1.766-.813-.156-1.605.138-2.409.02-.192-.028-.665-.335-.267-.48M16.505 20.561c.098-.112.619-.236.562.05-.044.22-.115.483-.084.721.331.08.69.109 1.013.213.403.13.814.291 1.166.533.494.337.656.939.397 1.497-.02.042-.088-.015-.09-.044-.018-.635-.866-1.253-1.379-1.448-.457-.173-.953-.175-1.408-.323-.56-.182-.522-.808-.177-1.199M10.523 18.613c.128.124.22.282.343.413.123.131.248.26.371.392.01.01.016.034-.002.04-.172.054-.335-.023-.49-.11-.172-.098-.33-.207-.44-.387-.073-.122.08-.481.218-.348M6.705 17.384c.463.27.979.426 1.38.803.345.325.584.796.692 1.262.008.033-.037.03-.055.02-.203-.129-.35-.337-.526-.5-.195-.18-.406-.344-.623-.494-.396-.273-.826-.537-1.274-.707-.364-.139.144-.537.406-.384M4.623 17.832c1.778.341 3.44 1.166 4.397 2.758.14.234.26.48.361.732.122.308.122.73.271 1.004.231.423.774.584 1.007 1.047.15.296.256.636.313.963.002.014-.022.008-.027.001-.437-.634-1.113-1.09-1.712-1.556-.204-.158-.252-.226-.317-.477-.22-.851-.304-1.367-1.018-2.203-.844-.988-2.046-1.612-3.277-1.975-.113-.033-.14-.322.002-.294M12.429 26.285c.009-.1.027-.196.063-.287.107-.268.323-.494.555-.678.207-.203.445-.361.704-.464.39-.216.834-.362 1.148-.086l.009.002c.076.018.103.063.099.116l.007.009c.008.012.004.029-.01.033l-.008.003c-.048.135-.251.295-.393.255-.215-.061-.42-.061-.61-.015-.13.065-.255.142-.37.236-.184.136-.384.279-.505.476-.22.359-.118.858-.102 1.263.007.187-.263.324-.417.27-.44-.15-.364-.665-.17-1.133" transform="translate(2.743 12.618)"/>
                                <path fill="#D1DEE3" d="M32.202 25.617c.606-.502 1.387-1.027 2.203-.811.012.003.03.02.014.03-.67.364-1.39.514-1.97 1.052-.574.534-.77 1.176-.616 1.928.038.187-.285.52-.423.29-.544-.907.07-1.89.792-2.489M24.127 23.377c.11-.268.83-.087.678.23-.36.756-.179 1.575.246 2.262.22.356.532.706.922.877.46.201.683.085 1.134-.153.385-.047.588-.243.608-.59.07-.15.104-.307.104-.47.003-.036.06-.008.069.012.443 1.12-.82 1.91-1.803 1.72-1.653-.317-2.578-2.393-1.958-3.888M15.885 23.963c.085-.042.28-.058.295.076.02.192-.059.352-.036.537.03.24.215.433.404.568.438.315 1.074.375 1.53.068.04-.027.11.036.092.078-.326.73-1.285.646-1.887.331-.339-.176-.696-.462-.812-.84-.13-.423.053-.639.414-.818M18.43 25.83c1.153 1.897 1.362 4.025.578 6.089-.066.173-.4.283-.33.006.501-2.002.432-4.159-.36-6.076-.038-.09.078-.075.113-.018M20.09 19.408c.61.07 1.297.198 1.749.652.338.339.445.803.514 1.26.046.232-.525.424-.576.137-.086-.485-.177-.918-.598-1.226-.353-.258-.793-.336-1.21-.435-.171-.041-.047-.408.121-.388M33.87 7.425c1.133-.612.662-2.03.025-2.813-.012-.016.014-.021.024-.015 1.317.752 1.318 2.505-.015 3.198-.238.123-.19-.285-.033-.37M40.093 10.182c-.07-.558-.318-.85-.578-1.298-.183-.315-.22-.419-.005-.678.123-.15.708-.187.545.105-.167.3.387.928.47 1.284.097.406.088.826.02 1.236-.113.663-.395 2.011-1.115 2.266-.016.005-.068-.01-.054-.035.493-.888.846-1.833.717-2.88M38.706 20.967c.425-.437.95-.843 1.203-1.415.361-.813.233-1.782.226-2.647 0-.067.083-.022.105-.002.701.658.682 2.097.298 2.918-.293.628-1 1.502-1.741 1.434-.253-.023-.218-.173-.091-.288" transform="translate(2.743 12.618)"/>
                                <path fill="#D1DEE3" d="M38.272 18.256c.573-.426 1.216-.56 1.55-1.242.082-.168.481-.329.583-.098.183.417-.123.64-.464.835-.277.158-.567.301-.857.434-.284.131-.458.136-.773.117-.015-.001-.063-.028-.039-.046M35.376 24.756c.577.025 1.125.138 1.661.35.466.182 1.208.796 1.714.785.018 0 .08.027.058.054-.287.35-.72.116-1.078-.03-.814-.333-1.606-.67-2.496-.73-.264-.018-.053-.437.141-.429" transform="translate(2.743 12.618)"/>
                                <path fill="#D1DEE3" d="M38.687 26.014c.485.607 1.277.131 1.701-.18.422-.31.762-.664.979-1.144.002-.006.015-.002.016.003.21.692-.528 1.568-1.088 1.887-.727.414-1.605.256-2.197-.307-.194-.184.402-.492.589-.26" transform="translate(2.743 12.618)"/>
                                <path fill="#D1DEE3" d="M24.98 31.98c.613-1.508.635-3.116.15-4.66-.015-.048.073-.023.086.006.685 1.556.655 3.242-.023 4.796-.102.233-.29.047-.213-.143" transform="translate(2.743 12.618) rotate(29 25.339 29.762)"/>
                                <path fill="#D1DEE3" d="M24.637 35.202c.613-1.507.635-3.115.15-4.66-.015-.046.074-.022.086.007.685 1.556.655 3.242-.023 4.796-.102.234-.29.047-.213-.143" transform="translate(2.743 12.618) rotate(29 24.996 32.985)"/>
                                <path fill="#D1DEE3" d="M19.505 38.209c.97-1.912 1.393-3.786.8-5.895-.007-.027.039-.018.047-.001.982 1.941.82 4.363-.57 6.052-.16.196-.406.098-.277-.156" transform="translate(2.743 12.618) rotate(42 20.223 35.383)"/>
                                <path fill="#D1DEE3" d="M20.614 32.676c.853-1.5 1.484-3.842.675-5.463-.046-.093.028-.284.122-.145 1.22 1.809.627 4.203-.602 5.822-.18.238-.304-.023-.195-.214" transform="translate(2.743 12.618)"/>
                                <path fill="#D1DEE3" d="M23.631 39.122c.854-1.5 1.484-3.842.676-5.463-.046-.093.027-.284.121-.145 1.221 1.809.628 4.204-.602 5.822-.18.238-.304-.023-.195-.214" transform="translate(2.743 12.618) rotate(40 24.344 36.448)"/>
                                <path fill="#D1DEE3" d="M18.9 32.46c1.737-1.127 1.82-3.376 1.805-5.2 0-.083.134-.001.139.052.208 2.06.073 4.285-1.883 5.506-.226.141-.209-.262-.06-.358" transform="translate(2.743 12.618)"/>
                                <path fill="#053468" d="M21.553 17.483c.658-.275 1.331-.6 1.819-1.132.26-.284.36-.592.617-.853l-.022-.087c-.238.268-.528.504-.765.7-.484.401-.902.709-1.485.95-.055.022-.159-.098-.102-.135.52-.33 1.042-.714 1.408-1.209.243-.327.407-.777.685-1.082-.036-.081-.073-.161-.115-.24-.031-.06.032-.077.075-.05.072.042.138.09.203.14l.016-.014c.124-.09.557-.146.52.11-.015.112-.05.22-.098.326l.005.003c.288.23.506.548.683.89.273.374.454.8.563 1.253.043.099.05.126.072.273v.007l.042.042c.144.157-.114.493-.304.388-.498-.274-1.01-.394-1.574-.42-.21-.009-.065-.405.107-.413.066-.003.13-.003.194-.002.013-.216.013-.434 0-.651-.174.199-.378.37-.59.528-.576.426-1.231.792-1.913 1.02-.16.052-.17-.288-.04-.342M22.825 20.778c.42-.23.848-.401 1.206-.73.209-.192.406-.413.547-.658.07-.119.105-.201.148-.276l-.372-.24c-.232.032-.45.103-.653.212-.198.092-.373.2-.559.313-.116.071-.195-.173-.116-.245.726-.657 2.108-1.112 2.7-.172.129-.034.252-.017.259.129.006.132-.014.264-.05.394.36 1.513-1.094 2.934-2.539 3.054-.407.034-.476-.364-.06-.415.706-.085 1.236-.588 1.544-1.188-.481.44-1.034.824-1.642 1.064-.14.056-.198-.231-.088-.29.56-.301 1.132-.605 1.53-1.11.259-.326.367-.721.531-1.08-.004-.026-.008-.052-.016-.075-.03.039-.06.079-.097.122-.207.247-.452.464-.705.663-.392.308-.987.784-1.506.828-.13.01-.16-.246-.062-.3M6.871 19.779c-.102-.104-.194-.213-.258-.33-.119-.132.146-.469.307-.366.593.38 1.144.978 1.437 1.608.066.142.321.838.344 1.263.011.03.01.062 0 .093-.005.118-.035.205-.106.231-.013.005-.03.002-.04-.007-.012-.01-.02-.023-.032-.034-.073.041-.153.061-.208.044-.429-.135-.865-.245-1.288-.4-.171-.063.024-.448.186-.41l.017.005c-.087-.12-.152-.243-.168-.364-.032-.243.122-.466.072-.729-.04-.21-.139-.416-.263-.604" transform="translate(2.743 12.618)"/>
                                <path fill="#053468" d="M6.635 20.923c.13-.062.202-.365.222-.494.02-.13.02-.262.01-.392-.016-.182-.033-.356-.032-.539 0-.08.122-.33.216-.183.209.325.162.721.082 1.085-.05.227-.14.768-.443.79-.108.008-.147-.224-.055-.267M3.364 26.864c.395-1.384 1.398-3.182 2.891-3.618-.2-.3-.505-.73-.616-.694-.044.014-.146-.062-.099-.108.285-.277 1.265.163 1.104.421-.08.128.024.227.164.323.082.022.161.063.183.122l.029.02c.083-.02.165-.016.218.028.415.35.425.953.349 1.495l.065.094c.092.06.048.166.006.24-.356.616-.079 1.577.236 2.168.116.217.255.417.414.6.065-.007.127.002.171.035.306.23.763.443.92.81.04.091.02.18.032.276.047.364.082.678.227 1.02.07.165-.2.29-.312.31-1.418.263-1.906 1.786-2.002 3.042-.02.261-.665.326-.646.012.09-1.53.82-2.917 2.294-3.372-.075-.25-.101-.49-.14-.763-.015-.113-.048-.208-.09-.293-.224-.129-.448-.292-.658-.481-.04.108-.078.218-.1.338-.068.382-.074.765-.05 1.15.007.124-.132.01-.15-.042-.154-.425-.329-.806-.352-1.267-.007-.147-.004-.298.015-.445.02-.154.053-.224.124-.282-.344-.438-.599-.946-.678-1.46-.093.106-.197.219-.297.353-.552.739-.756 1.513-1.04 2.371-.018.052-.1 0-.098-.04.016-.644.197-1.298.37-1.916.148-.527.374-1.426.907-1.686.032-.016.09-.037.152-.051-.02-.023-.027-.054-.018-.095.016-.103.041-.202.074-.3.018-.08.036-.164.05-.251-.033-.018-.058-.046-.066-.09-.075-.386-.188-.746-.371-1.085-.197.116-.412.206-.614.335-.288.184-.572.391-.831.614-.733.627-1.266 1.402-1.595 2.306-.056.153-.201-.042-.172-.144" transform="translate(2.743 12.618)"/>
                                <path fill="#053468" d="M7.723 30.537v-.016c.037-.44.076-.879.11-1.319.007-.107.11-.173.23-.198-.006-.11-.008-.22-.002-.333l.007-.002c.036-.2.322-.408.383-.177l.035.138c.117-.005.225.037.26.147.015.043.028.086.042.13.142-.014.28.029.313.147l.015.057v.001c.065.24.113.479.14.728.015.134-.111.214-.258.235-.056.078-.139.138-.264.167-.029.007-.056.01-.083.013l.003.035c.014.148-.149.243-.315.261-.02.027-.045.05-.075.07-.032.055-.07.109-.116.16-.068.074-.485.274-.467.028.007-.093.023-.183.042-.272M7.045 23.73c.203-.023.51.147.278.342-.493.413-1.087.612-1.544 1.1-.697.746-1.048 1.621-1.372 2.563-.037.107-.169-.038-.154-.111.309-1.537.902-3.683 2.792-3.895" transform="translate(2.743 12.618)"/>
                                <path fill="#053468" d="M5.58 22.903c.488-.145 2.098-.125 1.787.77-.04.113-.344.365-.444.188-.508-.898-1.647-.564-2.306-.11-.456.316-.628.668-.95 1.06-.031.039-.108-.017-.1-.058.176-.953 1.136-1.59 2.013-1.85M14.408 31.102c.782-1.478 1.356-3.134.91-4.836-.066-.254.533-.383.624-.164.028.067.051.134.072.201.037.015.072.035.103.06.204.172.454.333.71.41.108-.08.252-.108.334-.007.043.053.083.108.122.163l.009.013c.96 1.392.485 3.472-.259 4.873-.014.026-.07.002-.061-.027.254-.932.547-1.815.372-2.8-.035-.19-.08-.371-.134-.548-.03.191-.065.38-.095.561-.113.673-.26 1.328-.506 1.963-.021.056-.12-.007-.107-.056.3-1.177.5-2.376.181-3.563.026.666-.261 1.4-.472 1.984-.349.965-.735 1.934-1.265 2.81-.051.086-.178-.096-.142-.166.605-1.197 1.028-2.509 1.14-3.857-.053.185-.113.37-.176.556-.3.88-.656 1.819-1.227 2.555-.056.071-.168-.059-.133-.125" transform="translate(2.743 12.618)"/>
                                <path fill="#062C4E" d="M28.104 4.577c-4.738-3.026-10.993-1.68-14.185 2.91-.1.143-.505-.012-.389-.18 3.35-4.818 9.933-6.04 14.848-2.9.24.154-.114.272-.274.17" transform="translate(2.743 12.618)"/>
                                <path fill="#062C4E" d="M23.366 4.02c-3.257-.376-6.53.952-8.695 3.429-.076.087-.475-.063-.397-.152 2.258-2.584 5.647-3.845 9.019-3.456.181.021.37.214.073.18" transform="translate(2.743 12.618)"/>
                                <path fill="#062C4E" d="M14.775 7.088c.68.322.57 1.261-.212 1.33l.106-.224c.378.525-.295 1.013-.803.811-.293-.116-.513-.38-.597-.68-.11-.389.065-.713.284-1.026.113-.162.511.004.383.188-.193.276-.366.571-.22.912.072.168.246.417.478.311.128-.059.208-.262.121-.383-.07-.098-.02-.213.106-.224.402-.036.568-.565.165-.755-.258-.122-.03-.363.189-.26M32.63 2.951C32.557.947 30.56-.117 28.735.413c-.79.23-1.47.723-1.608 1.577-.144.895.252 1.88.99 2.401.233.165-.118.267-.27.16-.782-.553-1.235-1.501-1.164-2.464.084-1.131.998-1.753 2.028-1.989 1.979-.454 4.261.692 4.343 2.895.007.197-.417.123-.424-.042" transform="translate(2.743 12.618)"/>
                                <path fill="#062C4E" d="M32.422 2.76c1.322.5 2.656 1.41 2.812 2.93.142 1.372-.807 2.706-2.178 2.98-1.067.212-2.547-.44-2.391-1.728.11-.912 1.495-1.043 1.36-.09-.028.203-.45.097-.421-.114l-.478.11-.04.314c.006.247.094.456.236.649.403.547 1.118.692 1.756.496.772-.238 1.403-.882 1.636-1.651.549-1.811-.965-3.059-2.483-3.631-.269-.102-.033-.35.191-.265M27.98 12.207c.233-1.427.182-2.94-.45-4.268-.92-1.935-2.938-2.93-5.081-2.662-.095.012-.448-.14-.35-.152 1.825-.228 3.821.316 5.067 1.71 1.33 1.49 1.547 3.594 1.237 5.484-.011.07-.439-.02-.424-.112" transform="translate(2.743 12.618)"/>
                                <path fill="#062C4E" d="M20.577 6.609c.407-1.066 1.321-1.798 2.409-1.945.126-.017.484.198.255.229-1.021.137-1.87.834-2.25 1.832-.056.145-.464.016-.414-.116" transform="translate(2.743 12.618)"/>
                                <path fill="#062C4E" d="M20.675 6.584c.24-.013.495.114.438.397-.052.26-.281.415-.512.484-.09.027-.207-.006-.287-.05-.039-.022-.138-.098-.046-.125.132-.04.257-.105.344-.218.041-.053.071-.117.088-.183.01-.038.016-.078.012-.118-.002-.022-.025-.07.003-.057l.251.057-.03.001c-.095.006-.212-.018-.29-.08-.058-.047-.058-.103.029-.108" transform="translate(2.743 12.618)"/>
                                <path fill="#062C4E" d="M20.58 7.588c-.285.313-.73.285-1.063.044-.606-.438-.562-1.166-.116-1.683.16-.184.342-.346.533-.496.275-.216.379-.362.534-.664.16-.31.274-.51.603-.676.663-.334 1.511-.31 2.224-.197.178.028.369.222.072.175-.825-.13-2.592-.086-2.506 1.14l-.013.019c-.409.25-.824.542-1.12.925-.22.287-.334.586-.21.955.098.29.388.615.666.31.078-.085.475.062.397.148M36.393 15.271c.263-1.39.22-2.817-.515-4.056-.356-.602-.835-1.122-1.257-1.676-.286-.375-.998-1.112-.768-1.609.054-.116.46.025.418.114-.287.622.9 1.728 1.257 2.18.327.414.654.828.899 1.3.623 1.201.631 2.554.384 3.86-.02.107-.44.007-.418-.113M29.963 15.101c-.263-1.251-1.119-2.16-2.16-2.863-.796-.538-1.71-.954-2.697-.77-.698.132-1.24.52-1.37 1.248-.016.094-.44 0-.42-.112.288-1.623 2.408-1.531 3.587-1.051 1.562.636 3.117 1.914 3.475 3.619.022.103-.392.039-.415-.07" transform="translate(2.743 12.618)"/>
                                <path fill="#062C4E" d="M23.703 12.945c-1.775-.607-4.775-.487-5.105 1.843-.025.179-.451.077-.424-.113.357-2.525 3.694-2.65 5.601-1.996.25.085.185.354-.072.266" transform="translate(2.743 12.618)"/>
                                <path fill="#062C4E" d="M24.483 14.22c-1.413-.956-3.342-1.3-4.9-.486-.125.065-.513-.114-.337-.206 1.731-.903 3.934-.497 5.5.563.237.16-.126.222-.263.13" transform="translate(2.743 12.618)"/>
                                <path fill="#062C4E" d="M19.482 13.453c.298.076.585.28.61.611.024.334-.256.568-.563.613l.082-.09c.134.413-.226.844-.654.843-.434-.002-.695-.38-.716-.782-.009-.174.414-.091.421.052.01.196.06.533.315.412.21-.1.278-.374.213-.577-.016-.05.042-.084.082-.09.167-.024.286-.102.355-.256.081-.182.05-.457-.202-.521-.254-.065-.197-.28.057-.215M23.485 22.57c1.254-.268 2.307-1.278 2.211-2.646-.042-.6-.296-1.318-.829-1.65-.469-.292-1.54-.225-1.747.396-.057.175-.473.058-.416-.112.2-.603 1-.754 1.553-.725.671.035 1.207.42 1.533 1.011.965 1.745-.27 3.606-2.06 3.989-.16.034-.492-.21-.245-.262" transform="translate(2.743 12.618)"/>
                                <path fill="#062C4E" d="M23.128 18.59c-.044.375-.47.301-.77.114-.45-.28-.068-.688.208-.955 1.077-1.04 2.973-.396 3.956.473.105.094-.302.063-.387-.012-.725-.642-2.375-1.196-3.108-.35-.085.099-.21.254-.278.365-.112.183-.14.244-.106.393.152.052.185.05.097-.005-.058-.025-.07-.068-.034-.13.012-.102.437-.02.422.108" transform="translate(2.743 12.618)"/>
                                <path fill="#062C4E" d="M25.632 17.87c-.098-.995-.366-1.627-.945-2.408-.77-1.038-1.806-1.798-3.061-2.153-.257-.073-.188-.34.07-.267 1.214.343 2.426 1.07 3.19 2.09.681.911 1.057 1.607 1.172 2.777.02.204-.409.139-.426-.038M24.583 23.446c-1.404-.3-2.374-1.197-3.154-2.372-.149-.224.239-.306.352-.136.72 1.084 1.578 1.923 2.883 2.202.263.057.18.362-.08.306M18.892 23.362c.451-.629-.386-1.113-.886-1.327-.765-.328-1.789-.42-2.539-.02-.748.4-1.225 1.664-.107 2.024.288.092.015.127-.14.077-.567-.182-1.05-.643-.94-1.29.134-.798 1.069-1.168 1.783-1.221.696-.052 4.198.55 3.251 1.87-.067.094-.446-.08-.422-.113" transform="translate(2.743 12.618)"/>
                                <path fill="#062C4E" d="M16.01 21.596c-.68-1.943 2.257-2.284 3.46-2.256 1.214.029 3.412.725 2.964 2.399-.04.147-.458.033-.419-.115.48-1.789-2.012-2.118-3.178-2.011-1.046.095-2.93.547-2.409 2.037.05.141-.368.088-.417-.054M10.91 26.634c.453-.988 1.117-1.86 2.012-2.485.459-.322 1.493-.875 1.988-.326.166.184-.24.183-.338.075-.224-.249-1.006.248-1.22.388-.316.21-.607.468-.87.74-.486.504-.861 1.085-1.153 1.72-.069.15-.48.02-.42-.112" transform="translate(2.743 12.618)"/>
                                <path fill="#062C4E" d="M11.333 26.813c-.019.106.015.267.154.263.183-.006.331-.343.364-.478.032-.13.455-.025.422.11-.046.187-.18.42-.354.524-.12.072-.28.069-.415.05-.304-.045-.653-.235-.594-.579.022-.126.447-.03.423.11" transform="translate(2.743 12.618)"/>
                                <path fill="#062C4E" d="M15.237 24.864c-.728-.338-1.509-.033-2.042.468-.165.154-1.138 1.107-.891 1.271.175.117-.247.071-.327.018-.524-.348.918-1.563 1.237-1.755.701-.42 1.544-.4 2.27-.063.252.117-.142.11-.247.061" transform="translate(2.743 12.618)"/>
                                <path fill="#062C4E" d="M17.893 26.463c-.274.802-1.561.263-2.012-.063-.324-.234-.605-.538-.727-.921-.082-.256-.152-.759.188-.854.166-.047.497.192.248.262-.396.11.252 1.072.347 1.164.133.128.282.232.443.322.234.13.934.442 1.092-.02.06-.176.479-.06.42.11" transform="translate(2.743 12.618)"/>
                                <path fill="#062C4E" d="M16.996 25.56c-.386-.125-.751-.314-1.03-.606-.246-.258-.403-.661-.079-.925.114-.092.506.067.392.16-.547.444.377 1.04.774 1.169.244.079.195.284-.057.202M17.846 30.302c-.28 1.355-2.546 6.084-3.24 7.289-.065.113-.476-.037-.432-.113.618-1.075 2.836-5.647 3.137-6.844.299-1.19.582-2.826-.22-3.888-.091-.12.328-.067.395.022.74.98.593 2.411.36 3.534zM36.578 30.498c1.651.398 3.611-2.263 2.163-3.534-.191-.168.233-.192.351-.09 1.77 1.555-.666 4.327-2.579 3.865-.263-.063-.198-.305.065-.241M40.03 8.062c1.427.91 1.008 3.398.518 4.71-.131.352-.184.59-.078.96.058.204.17.391.23.596.099.337.136.69.12 1.041-.037.848-.388 1.616-.978 2.217-.11.112-.509-.047-.388-.17.524-.534.855-1.206.932-1.956.04-.393.005-.8-.107-1.18-.097-.328-.33-.645-.337-.997-.006-.361.25-.766.351-1.108.121-.41.202-.83.234-1.256.064-.863.07-2.185-.761-2.715-.24-.153.12-.234.265-.142" transform="translate(2.743 12.618)"/>
                                <path fill="#062C4E" d="M39.688 8.049c-.054-.013-.181.124-.214.165-.064.08-.105.177-.112.283-.016.23.157.492.377.528.046.007.237.05.24.115.004.073-.122.045-.162.038-.357-.058-.823-.275-.864-.71-.018-.2.089-.404.251-.508.162-.103.34-.08.516-.038.032.007.21.062.189.121-.023.063-.186.014-.22.006" transform="translate(2.743 12.618)"/>
                                <path fill="#062C4E" d="M40.132 9.301c.517 1.414-.099 2.757-.873 3.97-.065.101-.478-.058-.443-.113.766-1.198 1.394-2.525.88-3.931-.028-.075.397-.032.436.074" transform="translate(2.743 12.618)"/>
                                <path fill="#062C4E" d="M39.29 13.307c.28 1.476-.265 2.954-1.441 3.88-.111.088-.494-.076-.388-.16 1.147-.903 1.687-2.335 1.414-3.776-.029-.15.39-.08.415.056M40.444 16.87c1.626 1.651-.2 4.004-1.867 4.654-.13.05-.511-.137-.334-.206.781-.306 1.491-.795 1.932-1.524.501-.827.663-2.106-.07-2.85-.173-.176.238-.176.339-.073" transform="translate(2.743 12.618)"/>
                                <path fill="#062C4E" d="M35.752 18.894c.514-.213.937-.58 1.188-1.088.213-.428.31-1.051-.125-1.373-.229-.17.108-.33.28-.203 1.226.907-.146 2.561-1.103 2.958-.183.076-.487-.192-.24-.294" transform="translate(2.743 12.618)"/>
                                <path fill="#062C4E" d="M36.43 16.844c.655-1.07-.274-2.589-1.556-1.923-.109.056-.502-.108-.343-.19 1.4-.728 3.235.74 2.326 2.227-.078.127-.482-.023-.426-.114" transform="translate(2.743 12.618)"/>
                                <path fill="#062C4E" d="M34.362 14.78c-.099-.08-.205-.198-.329-.108-.119.086-.099.218-.04.339.045.094.118.215.204.273.118.08.226.01.307-.095.08-.104.48.045.388.163-.383.494-1.108.04-1.313-.403-.122-.265.013-.489.282-.538.31-.056.596.127.83.317.071.059.04.114-.035.135-.09.026-.223-.025-.294-.082" transform="translate(2.743 12.618)"/>
                                <path fill="#062C4E" d="M34.952 15.396c.964.428 1.01 1.604.25 2.275-.96.847-2.466.826-3.626.493-.242-.07-.215-.193.033-.122.997.286 2.376.243 3.193-.513.582-.538.823-1.68-.092-2.085-.254-.112.144-.092.242-.048" transform="translate(2.743 12.618)"/>
                                <path fill="#062C4E" d="M33.458 23.725c-1.424.924-2.528-1.472-2.702-2.462-.078-.446-.139-.91-.138-1.365 0-.303.017-.677.185-.944.086-.136.325-.224.425-.377.34-.515.22-1.267.075-1.813-.25-.943-.83-1.439-1.87-1.569-.113-.014-.46-.207-.184-.173.6.075 1.233.195 1.728.564.66.493.93 1.509.89 2.3-.019.368-.115.666-.336.963-.215.29-.417.417-.466.796-.038.286-.017.572.007.858.046.562.125 1.13.312 1.664.183.526.873 1.932 1.674 1.413.1-.065.461.106.4.145M28.93 24.719c-.389-.618-1.207-1.333-1.92-1.59-.733-.261-2.76-.036-2.4 1.174.053.18-.377.13-.426-.038-.342-1.152 1.348-1.615 2.217-1.562 1.112.067 2.366 1.086 2.93 1.98.116.187-.311.178-.4.036M23.913 14.234c-2.226 3.487-6.488 4.807-10.397 4.967-.195.008-.434-.283-.15-.295 3.831-.157 7.978-1.438 10.16-4.855.097-.152.501.004.387.183M22.231 5.087c1.245.262 2.255.94 2.727 2.16.507 1.312.382 2.817.105 4.166-.02.097-.443-.003-.42-.113.455-2.217.43-5.462-2.337-6.045-.17-.036-.368-.23-.075-.168M15.493 25.529c.332 1.975-.494 3.812-1.737 5.312-.872 1.052-1.787 1.893-3.114 2.304-1.62.5-3.363.623-5.046.739-1.4.096-2.935.025-4.297.399-.155.042-.5-.185-.253-.253 1.182-.324 2.486-.293 3.7-.37 1.686-.105 3.402-.205 5.048-.606 1.437-.349 2.39-1.034 3.352-2.13 1.33-1.513 2.266-3.386 1.922-5.44-.031-.184.398-.119.425.045M36.471 30.385c.168 2.83-1.575 4.864-3.662 6.08-.142.084-.67-.163-.462-.285 2.002-1.167 3.717-3.172 3.556-5.89-.014-.223.557-.09.568.095" transform="translate(2.743 12.618)"/>
                                <path fill="#062C4E" d="M13.57 20.032c-.19-.522-.484-.982-.914-1.341-.715-.596-1.92-.757-2.225.252-.04.136-.456.021-.416-.111.276-.911 1.286-1.009 2.068-.722.909.334 1.575 1.081 1.903 1.978.046.127-.367.077-.415-.056M44.707 18.376c-.587 1.99-2.43 2.934-4.38 3.223-.198.03-.429-.246-.149-.288 1.841-.273 3.56-1.174 4.111-3.046.054-.181.471-.07.418.11" transform="translate(2.743 12.618)"/>
                                <path fill="#062C4E" d="M44.23 18.326c-.33-.79.633-1.716 1.285-.985.853.956-.957 2.962-1.49 3.666-.093.124-.502-.027-.392-.173.484-.64.975-1.284 1.334-2.006.129-.259.34-.627.302-.93-.034-.267-.21-.506-.475-.379-.271.13-.255.576-.166.789.084.2-.339.158-.397.018" transform="translate(2.743 12.618)"/>
                                <path fill="#062C4E" d="M44.09 21.016c.335.5.586 1.175.272 1.747-.312.567-.981 1.01-1.583 1.19-.465.14-1.158.212-1.566-.12-.298-.243-.28-.682.118-.783.153-.038.49.191.247.252-.212.104-.208.21.01.315.107.178.263.235.47.172.158-.009.32-.042.473-.087.404-.118.776-.363 1.075-.655.62-.605.556-1.315.094-2.005-.116-.173.303-.156.39-.026M40.15 22.125c.42-.21-.227-.643-.398-.712-.246-.099-.528-.122-.786-.067-.372.08-.666.28-.907.564-.105.123-.509-.029-.389-.17.51-.6 1.307-.834 2.071-.594.365.114 1.493.82.739 1.195-.14.07-.52-.122-.33-.216" transform="translate(2.743 12.618)"/>
                                <path fill="#062C4E" d="M41.693 24.105c-.216 1.298-1.25 2.153-2.528 2.228-.147.009-.447-.204-.167-.22 1.186-.07 2.083-.956 2.278-2.121.02-.127.441-.03.417.113M44.764 24.573c-.534.882-1.532 1.346-2.575 1.273-.226-.016-.335-.29-.046-.27.927.066 1.77-.409 2.233-1.175.084-.14.49.002.388.172" transform="translate(2.743 12.618)"/>
                                <path fill="#062C4E" d="M44.32 24.338c.198-.045.141-.275-.192.121-.062.074-.045.127-.12.202-.153.15-.54.202-.739.258-.716.2-1.327.12-2.007-.154l.167-.175.07.034c.261.128.023.269-.166.176l-.07-.035c-.265-.129-.024-.252.166-.175.73.293 1.813.335 2.267-.394.17-.27.246-.428.615-.396.405.035.83.64.265.768-.136.031-.494-.176-.256-.23M42.326 25.91c.106.78.446 1.488-.16 2.177-.407.465-1.095.544-1.652.32-.519-.207-1.019-.877-.558-1.392.283-.318.977-.288 1.129.155.031.092-.372.045-.411-.068-.108-.318-.436.237-.453.294-.07.246.017.52.183.709.343.387.944.248 1.282-.07.681-.637.335-1.416.229-2.193-.016-.115.396-.04.41.068" transform="translate(2.743 12.618)"/>
                                <path fill="#062C4E" d="M40.803 28.494c-.042.853-1.155 1.235-1.9 1.197-.248-.013-.335-.327-.038-.312.538.027 1.465-.277 1.496-.916.01-.222.45-.159.442.031M10.804 19.563c-.76-.507-1.408-1.122-1.936-1.87-.132-.186-.256-.379-.392-.562-.303-.408-.473-.552-.989-.663-.542-.116-.794-.068-1.004.492-.083.223-.095.45-.097.685-.001.098-.421.028-.42-.112.01-1.157.905-1.738 1.951-1.236.578.277.914.808 1.27 1.316.534.762 1.17 1.395 1.945 1.912.183.122-.237.1-.328.038" transform="translate(2.743 12.618)"/>
                                <path fill="#062C4E" d="M7.35 18.506c-.587-.681-1.785-.92-2.644-1.08-.943-.178-1.893-.213-2.848-.13-.213.018-.429-.288-.144-.312 1.117-.097 2.229-.042 3.325.198.903.197 2.042.469 2.667 1.194.174.202-.227.28-.355.13" transform="translate(2.743 12.618)"/>
                                <path fill="#062C4E" d="M8.697 22.546c-.08-3.227-3.6-4.98-6.424-4.798-.165.011-.447-.229-.162-.247 2.993-.193 6.923 1.625 7.01 5.096.004.18-.42.094-.424-.051" transform="translate(2.743 12.618)"/>
                                <path fill="#062C4E" d="M2.359 17.728c.237.204.05.495-.181.585-.305.118-.655.062-.952-.052-.045-.018-.161-.064-.12-.128.037-.058.224.004.264.02.17.065.39.054.546-.05.13-.086.21-.281.072-.401-.074-.065.065-.08.098-.078.095.004.2.04.273.104" transform="translate(2.743 12.618)"/>
                                <path fill="#062C4E" d="M1.323 18.295c-.543.25-1.39-.08-1.319-.755.034-.312.259-.623.572-.708.411-.112.794.109 1.179.209.25.065.203.248-.05.182-.394-.102-.84-.372-1.137.05-.22.314-.18 1.109.415.834.112-.052.5.114.34.188M4.536 22c-.206.193-1.263.446-1.312-.086-.031-.34.724-.465.928-.489.606-.07 1.248-.01 1.839.132 1.723.413 3.731.909 4.636 2.55.034.06-.36.035-.42-.072-.643-1.166-1.734-1.596-2.95-1.968-.376-.115-.754-.231-1.134-.33-.514-.135-1.06-.201-1.592-.148-.26.005-.498.077-.716.215.106.22.213.238.32.053.083-.076.47.079.401.144" transform="translate(2.743 12.618)"/>
                                <path fill="#062C4E" d="M4.525 22.114c.196.285.517.316.79.135.123-.081.507.104.332.22-.486.32-1.185.141-1.513-.339-.114-.167.307-.14.391-.016M9.408 28.693c-1.113-.594-2.989-2.062-1.857-3.44.311-.378.805-.573 1.291-.47.431.093.787.412.633.87-.034.104-.458-.018-.426-.113.108-.169.04-.29-.203-.362-.116-.23-.256-.275-.422-.135-.228.056-.44.293-.562.481-.215.333-.28.743-.172 1.124.25.88 1.199 1.571 1.967 1.98.248.133-.143.122-.249.065" transform="translate(2.743 12.618)"/>
                                <path fill="#062C4E" d="M7.67 25.228c-.233-.244-.51-.549-.465-.906.037-.29.27-.515.576-.526.097-.003.258.028.297.13.036.094-.032.165-.134.169-.212.007-.3.254-.28.428.028.235.224.426.381.592.19.2-.247.249-.376.113" transform="translate(2.743 12.618)"/>
                                <path fill="#062C4E" d="M7.412 23.95c-.412-.984-1.372-1.424-2.29-1.821-.26-.113-.029-.321.179-.231 1.003.434 2.054.94 2.504 2.011.09.213-.325.202-.393.04M5.961 18.356c.616.45 1.31 1.06 1.234 1.912-.05.553-.442 1.324-1.04 1.401-.139.018-.492-.207-.254-.237.501-.065.818-.794.86-1.248.07-.75-.508-1.289-1.062-1.693-.23-.167.125-.234.262-.135M4.636 22.388c-1.828.707-2.951 2.492-3.498 4.302-.35 1.159-.545 2.365-.569 3.576-.021 1.097-.052 2.55.828 3.349.212.192-.12.351-.284.204-.83-.753-.938-1.86-.97-2.926-.04-1.369.127-2.747.498-4.065.562-1.995 1.743-3.958 3.753-4.734.187-.073.495.197.242.294M9.459 25.794c-.117.442-.648.515-.956.242-.208-.184.113-.331.267-.194.125.11.25-.027.286-.162.052-.195.455-.082.403.114" transform="translate(2.743 12.618)"/>
                                <path fill="#062C4E" d="M8.748 26.147c-.047.182-.038.358.026.533.029.077-.117.066-.146.061-.064-.011-.173-.044-.202-.123-.068-.185-.078-.386-.029-.579.03-.115.38-.004.351.108M9.047 27.043c.334.452.798.765 1.36.854.193.03.355.26.062.213-.725-.114-1.373-.475-1.812-1.068-.104-.142.314-.102.39.001M10.096 28.5c-.672.29-.232 1.28.03 1.698.322.514.88 1.048 1.527 1.02.213-.01.427.313.142.325-.859.038-1.607-.526-2.054-1.244-.386-.618-.746-1.729.114-2.1.187-.08.49.193.241.3" transform="translate(2.743 12.618)"/>
                                <path fill="#062C4E" d="M9.905 30.373c-1.413.485-2.304 1.73-2.358 3.241-.004.118-.42.039-.415-.113.055-1.554.994-2.825 2.44-3.322.116-.04.492.14.333.194M12.858 19.888c.628.033 1.22.202 1.78.494.349.181.675.403.989.642.227.173.626.402.759.66.007.015.004.025-.009.034l-.027.009c-.095.033-.359-.006-.408-.112l-.01-.02c-.025-.055.367-.029.418.08l.009.02-.409-.112c-.031.01-.987-.805-1.046-.844-.555-.375-1.189-.651-1.86-.687-.108-.006-.462-.179-.186-.164M27.222 11.804c.492-2.313-.392-4.793-2.245-6.278-.062-.05.079-.049.114-.021 1.869 1.498 2.77 4 2.273 6.337-.01.046-.152.011-.142-.038" transform="translate(2.743 12.618)"/>
                                <path fill="#062C4E" d="M26.266 11.404c.173-1.168-.017-2.341-.406-3.448-.347-.985-.803-2.016-1.649-2.664-.028-.022.1-.01.127.011.851.653 1.312 1.687 1.66 2.679.39 1.11.582 2.286.408 3.46-.004.027-.146-.003-.14-.038" transform="translate(2.743 12.618)"/>
                                <path fill="#062C4E" d="M25.455 11.258c.279-2.134.198-4.733-1.838-6.064-.081-.054.045-.064.088-.036 2.071 1.354 2.18 3.954 1.895 6.138-.005.041-.151.01-.145-.038M26.84 11.66c.152-.985-.034-1.955-.232-2.913-.012-.061.112-.042.124.014.199.966.384 1.944.23 2.936-.01.058-.132.023-.123-.038M26.331 7.842c-.17-.44-.372-.863-.615-1.266-.209-.345-.502-.91-.864-1.107-.081-.044.04-.066.085-.041.363.198.628.699.842 1.04.275.44.502.907.69 1.392.017.044-.12.028-.138-.018" transform="translate(2.743 12.618)"/>
                                <path fill="#062C4E" d="M27.705 11.884c.277-2.151-.426-4.345-1.916-5.97-.03-.03.108-.014.132.012 1.498 1.632 2.208 3.832 1.93 5.995-.003.027-.15 0-.146-.037M25.918 8.418c.27.918.279 1.873.03 2.797-.016.062-.147.024-.13-.038.246-.916.235-1.861-.032-2.77-.018-.063.115-.047.132.011M25.784 19.206c-.041.383-.364.697-.6.987-.25.307-.516.604-.806.876-.308.29-.645.554-1.02.76-.236.13-.577.343-.855.32-.04-.004-.084-.03-.078-.073l.003-.026c.003-.02.03-.032.048-.033l.02-.001c.073-.004.147.1.05.105l.023-.007-.078-.072c.309.026.76-.288 1.004-.444.323-.208.617-.456.888-.724.238-.235.458-.486.669-.744.228-.28.548-.594.588-.962.007-.066.152-.032.144.038M24.817 18.057c-.644 1.086-1.531 1.987-2.604 2.644-.057.035-.181-.043-.11-.087 1.065-.652 1.944-1.544 2.583-2.622.035-.06.171-.003.131.065M25.101 17.433c.148-.2.245-.432.292-.688.006-.03.123.001.117.036-.048.26-.15.494-.3.698-.019.026-.129-.02-.109-.046M24.683 15.22c-1.586 1.958-3.678 3.453-6.041 4.322-.039.014-.167-.045-.114-.064 2.358-.867 4.44-2.358 6.023-4.311.027-.034.163.014.132.053M16.417 20.592c-.055 0-.151-.076-.055-.076.055 0 .152.076.055.076M16.277 20.358l.048-.05.118.061c-.395.22-.81.379-1.248.477-.04.01-.159-.058-.084-.075.43-.096.835-.252 1.223-.469.027-.015.155.022.118.061l-.048.05c-.032.034-.16-.019-.127-.055M18.432 19c-1.462.577-2.982.967-4.537 1.161-.045.006-.163-.069-.085-.078 1.547-.193 3.058-.578 4.512-1.153.042-.017.168.046.11.07" transform="translate(2.743 12.618)"/>
                                <path fill="#062C4E" d="M21.823 17.057c.842-.672 1.592-1.44 2.245-2.296.036-.046.173.007.132.06-.66.863-1.417 1.636-2.265 2.313-.044.035-.172-.029-.112-.077M24.225 16.979c.346-.297.641-.647.885-1.046.034-.057.157 0 .118.064-.248.407-.55.764-.904 1.066-.048.042-.16-.033-.1-.084M22.063 18.946c-.429.298-.88.564-1.355.797-.057.028-.186-.041-.114-.076.475-.234.927-.5 1.355-.798.052-.036.18.03.114.077M20.569 17.885c-.284.203-.587.367-.909.491-.033.013-.151-.04-.105-.058.316-.123.613-.283.892-.482.033-.024.148.03.122.05M24.543 19.687c-.575.698-1.242 1.29-1.994 1.77-.044.028-.169-.036-.108-.075.744-.476 1.405-1.063 1.974-1.754.035-.042.168.011.128.06M24.964 19.148c.165-.137.302-.298.41-.483.02-.035.148.014.135.036-.109.188-.249.354-.417.494-.029.024-.15-.028-.128-.047M25.638 20.584c-.693.804-1.531 1.445-2.487 1.903-.058.028-.16-.056-.08-.094.938-.45 1.76-1.082 2.44-1.87.04-.049.173.007.127.061M22.551 19.343c-.312.283-.66.508-1.046.677-.054.024-.16-.055-.08-.09.366-.16.702-.377 1-.647.043-.04.173.017.126.06M15.725 19.513c-.658.103-1.318.182-1.983.237-.074.006-.145-.097-.048-.105.665-.055 1.325-.134 1.983-.237.075-.012.145.09.048.105M16.088 20.093c-.475.106-.954.197-1.438.273-.047.008-.165-.054-.085-.067.484-.076.963-.168 1.438-.274.047-.01.165.05.085.068M20.93 17.837c.24-.127.489-.243.746-.347.041-.016.175.033.117.057-.258.103-.506.219-.747.346-.038.02-.173-.026-.117-.056M14.607 32.388c1.25-1.64 1.9-3.652 1.843-5.703 0-.021.14-.003.142.038.056 2.05-.594 4.063-1.843 5.703-.026.034-.153-.023-.142-.038M16.323 31.337c.497-1.437.992-2.946.62-4.48-.017-.068.123-.051.138.01.375 1.543-.121 3.063-.62 4.508-.023.064-.16.025-.138-.038M14.673 34.592c-.372.772-.946 1.395-1.678 1.813-.068.04-.282-.065-.232-.093.723-.414 1.294-1.025 1.661-1.789.037-.075.277.01.249.069M15.356 29.778c-.954 1.831-2.268 3.569-4.272 4.3-.058.022-.164-.062-.081-.093 1.984-.725 3.28-2.457 4.224-4.269.028-.054.162-.003.129.062M15.567 28.548c.215-.715.278-1.456.188-2.208-.002-.016.11-.005.115.037.09.751.027 1.493-.188 2.208-.01.031-.123-.01-.115-.037" transform="translate(2.743 12.618)"/>
                                <path fill="#062C4E" d="M11.725 33.31c-.917.502-1.948.639-2.961.84-.032.007-.152-.045-.117-.052 1.006-.2 2.034-.336 2.945-.835.035-.019.146.04.133.047M14.045 34.023c-.547.745-1.27 1.321-2.129 1.697-.094.041-.35-.088-.223-.144.844-.37 1.55-.934 2.09-1.667.062-.085.337.012.262.114M4.646 23.817c-1.681 1.322-2.652 3.415-2.581 5.558.002.07-.139.049-.141-.012-.073-2.172.91-4.285 2.614-5.625.047-.037.17.03.108.079M2.127 30.699c.089 1.101.435 2.148 1.023 3.08.03.047-.106.03-.127-.004-.592-.938-.944-1.988-1.034-3.097-.004-.047.134-.019.138.02M5.001 25.85c-.965 1.279-1.353 2.917-1.066 4.501.01.05-.13.027-.138-.019-.29-1.597.101-3.246 1.075-4.535.027-.036.16.012.13.054M4.118 31.588c.25.76.538 1.517 1.146 2.086.064.06-.074.088-.121.043-.615-.575-.91-1.341-1.163-2.111-.025-.077.118-.079.138-.018M5.567 29.505c-.114-1.614.583-3.2 1.841-4.194.033-.026.16.03.131.052-1.254.992-1.946 2.571-1.832 4.18.002.028-.137.01-.14-.038M7.069 28.44c-.242.71-.355 1.465-.202 2.206.063.31.17.61.323.889.074.135.36.406.353.549 0 .008-.022.01-.025.01l-.024-.001c-.026 0-.12-.01-.12-.048v-.017c0-.021.146-.002.146.039v.016l-.12-.047c-.034-.001-.206-.284-.232-.323-.087-.132-.163-.272-.228-.416-.114-.255-.194-.524-.24-.8-.12-.707-.006-1.42.223-2.095.01-.032.155.01.146.038M8.075 27.687c-.436 1.052-.085 2.287.562 3.152.027.036-.1.018-.12-.01-.653-.871-1.015-2.116-.574-3.18.015-.036.143.01.132.038M5.768 24.615c.422-.495.996-.825 1.66-.955.055-.011.17.067.085.083-.647.127-1.201.446-1.612.928-.037.043-.175-.007-.133-.056M5.627 23.328c.257-.242.563-.407.905-.491.034-.009.154.046.11.057-.336.082-.635.245-.888.483-.029.027-.153-.024-.127-.049M7.477 21.749c.301-.571.615-1.23.192-1.825-.039-.054.112-.043.14-.004.431.606.13 1.277-.182 1.866-.025.048-.172.005-.15-.037M7.317 20.912c.17-.613.108-1.233-.179-1.792-.036-.07.096-.073.125-.017.295.573.359 1.218.184 1.847-.018.066-.149.027-.13-.038M8.365 21.74c-.043.158-.097.31-.163.456-.025.054-.134.003-.105-.061.062-.139.113-.282.153-.432.017-.064.131-.026.115.037" transform="translate(2.743 12.618)"/>
                                <path fill="#062C4E" d="M4.518 25.034c-.538.588-.926 1.27-1.151 2.026-.017.056-.16.018-.143-.037.228-.765.619-1.453 1.163-2.046.037-.042.173.011.13.057M2.53 25.315C.973 27.613.744 30.587 1.937 33.07c.034.07-.116.063-.14.012-1.206-2.51-.978-5.506.597-7.828.033-.048.177.002.138.06M3.068 28.512c-.207 1.818.263 3.653 1.317 5.134.03.042-.107.024-.128-.006-1.061-1.492-1.537-3.336-1.329-5.166.004-.034.145-.005.14.038M4.889 28.382c-.316 1.843.26 3.764 1.544 5.107.056.058-.08.053-.112.02-1.3-1.36-1.893-3.295-1.572-5.165.008-.046.149-.013.14.038M5.968 30.964c.284.683.671 1.306 1.16 1.866.029.032-.104.016-.127-.01-.493-.564-.884-1.19-1.171-1.88-.01-.024.123-.012.138.024M6.515 27.789c.097-.606.386-1.131.833-1.517.03-.027.149.028.123.05-.443.383-.729.904-.825 1.505-.005.035-.138.003-.131-.038M5.704 25.841c.26-.257.453-.567.734-.804.268-.226.582-.382.92-.484.067-.02.17.072.083.098-.328.1-.633.25-.892.47-.274.23-.46.533-.713.783-.049.048-.185-.01-.132-.063M5.63 24c.372-.399.896-.912 1.5-.808.069.012.11.102.015.085-.55-.094-1.05.417-1.387.78-.036.038-.168-.013-.127-.056M4.759 23.179l.206-.066c.05-.016.16.04.083.066l-.207.066c-.05.015-.16-.041-.082-.066M3.559 23.522l-.613.605c-.037.036-.166-.019-.127-.057l.613-.605c.036-.036.166.019.127.057M5.08 25.24c.111-.144.254-.26.421-.343.04-.02.165.035.107.064-.16.08-.296.191-.403.33-.027.036-.158-.007-.125-.05M4.868 27.21c-.3.582-.457 1.197-.475 1.85-.001.034-.143.01-.141-.037.017-.654.175-1.268.474-1.85.022-.042.158.005.142.037M6.36 28.783c-.096.66-.053 1.328.139 1.968.087.292.203.574.347.842.072.133.15.263.236.389.052.077.108.151.165.225.033.044.068.087.104.13.057.053.048.058-.027.016l.126.04-.016.005c-.032.01-.156-.042-.114-.055l.015-.005c.035-.011.106.008.126.04.017.026.017.02.006.048-.006.013-.03.01-.04.01-.157-.014-.218-.124-.316-.249-.256-.33-.464-.695-.619-1.083-.299-.749-.387-1.562-.27-2.359.003-.029.144 0 .138.038M7.6 29.145c-.135.73.03 1.452.48 2.059.053.072-.085.088-.122.038-.467-.63-.646-1.374-.505-2.134.011-.061.159-.026.147.037M8.503 29.052c.205.507.475.97.81 1.39.056.071-.074.1-.116.047-.342-.429-.617-.901-.826-1.418-.032-.079.106-.082.132-.02M8.982 28.914c.154.458.358.889.612 1.295l-.129-.011-.038-.117c-.013-.041.12-.023.134.02l.038.117c.016.047-.113.014-.129-.01-.258-.412-.466-.85-.623-1.315-.013-.04.12-.023.135.02M8.242 28.815l-.013-.79c-.001-.07.123-.054.124.01l.013.789c.001.071-.123.054-.124-.009M37.433 22.226c-2.116 1.605-6.575.83-6.848-2.238-.006-.07.412-.022.424.114.249 2.793 4.08 3.45 6.025 1.975.098-.075.473.093.399.149M38.237 26.31c-1.24-.894-2.78-1.575-4.313-1.028-1.137.405-1.915 1.439-1.887 2.66.002.082-.42.02-.423-.114-.038-1.668 1.364-2.789 2.926-2.92 1.472-.124 2.858.533 4.025 1.373.177.128-.243.09-.328.028M28.805 21.085c.082-.424.152-.857-.08-1.247-.246-.412-.68-.747-1.154-.758-.14-.003-.441-.228-.166-.221.537.012 1.022.233 1.408.622.498.503.536 1.034.404 1.719-.025.13-.44.025-.412-.115" transform="translate(2.743 12.618)"/>
                                <path fill="#062C4E" d="M27.403 19.58c.004-.585-.673-.952-1.182-1.108-.261-.08-.186-.366.08-.285.646.198 1.545.671 1.54 1.425 0 .217-.439.155-.438-.032M35.986 29.262c.126-1.59-1.796-2.421-3.126-1.794-.446.21-.796.594-.863 1.09-.031.229-.002.454.074.67.04.13.103.253.186.365.256.41.644.43 1.166.057.06-.135.473-.003.421.113-.663 1.494-3.539-.855-1.686-2.271 1.466-1.12 4.412-.153 4.25 1.882-.01.123-.434.038-.422-.112M26.52 24.775c.501-.079 1.082.082 1.37.53.33.51.115 1.175-.407 1.452-1.117.595-2.553-.273-2.862-1.398-.034-.125.382-.065.417.061.215.784 1.012 1.545 1.89 1.246.302-.103.562-.315.654-.628.148-.499-.119-1.167-.799-1.06-.115.019-.488-.167-.263-.203M28.617 31.277c1.491-1.368 2.3-3.5 1.085-5.313-.11-.163.323-.128.402-.01 1.25 1.863.46 4.07-1.086 5.49-.112.102-.518-.06-.4-.167M16.389 31.868l-.406.692c-.021.037-.155-.011-.14-.035l.405-.693c.02-.036.155.012.14.036M16.73 31.884c-.333.765-.792 1.451-1.372 2.046-.04.042-.17-.013-.125-.059.575-.589 1.031-1.266 1.36-2.024.026-.057.16-.017.137.037M14.124 32.424c-.529.671-1.15 1.247-1.854 1.722-.033.022-.15-.035-.13-.048.706-.475 1.326-1.05 1.855-1.722.021-.027.151.02.13.048M4.257 23.044c.208-.242.465-.427.761-.548.041-.017.168.043.11.066-.29.119-.538.299-.741.536-.031.036-.164-.014-.13-.054" transform="translate(2.743 12.618)"/>
                            </g>
                        </g>
                    </g>
                    <path fill="#EBEBEB" fill-rule="nonzero" d="M59.44 37.514c1.066 0 2.126-.26 3.18-.78 1.053-.519 2.084-1.2 3.092-2.042 1.007-.843 1.975-1.801 2.901-2.875.927-1.073 1.801-2.175 2.623-3.307.823-1.13 1.57-2.245 2.241-3.341.672-1.097 1.251-2.084 1.738-2.96.115-.209.196-.405.243-.59.046-.184.07-.346.07-.484 0-.462-.117-.74-.348-.831-.232-.093-.405-.139-.521-.139-.186 0-.348.029-.487.087-.139.057-.255.11-.347.155-.904.785-1.853 1.478-2.85 2.078-.856.531-1.83 1.004-2.918 1.42-1.089.415-2.2.623-3.335.623-.765 0-1.384-.098-1.86-.294-.474-.196-.839-.45-1.094-.762-.255-.312-.428-.652-.52-1.021-.094-.37-.14-.716-.14-1.04 0-.853.145-1.563.434-2.129.29-.566.666-1.01 1.13-1.333.463-.323.99-.554 1.58-.693.591-.138 1.2-.207 1.825-.207.671 0 1.349.057 2.032.173.684.115 1.292.242 1.824.38.626.162 1.228.335 1.807.52 1.483.462 2.803.843 3.961 1.143 1.158.3 2.2.542 3.127.727.927.185 1.755.317 2.484.398.73.08 1.396.121 1.998.121 1.367-.023 2.461-.179 3.284-.467.822-.289 1.459-.64 1.91-1.056.452-.416.753-.849.904-1.299.15-.45.226-.871.226-1.264 0-.415-.03-.733-.087-.952-.058-.22-.122-.381-.191-.485-.07-.104-.14-.167-.209-.19-.07-.023-.127-.035-.173-.035-.209 0-.394.08-.556.242-.14.231-.301.45-.487.658-.162.185-.359.376-.59.572-.232.196-.51.352-.834.467-1.089.416-2.41.624-3.961.624-1.506 0-2.878-.127-4.117-.381-1.24-.254-2.456-.531-3.649-.831-1.193-.3-2.409-.578-3.648-.832-1.24-.253-2.6-.38-4.082-.38-.672 0-1.332.046-1.98.138-.65.092-1.252.266-1.808.52-.74.369-1.413.83-2.015 1.385-.51.484-.967 1.096-1.372 1.835-.406.739-.608 1.639-.608 2.7 0 .416.058.942.173 1.577.116.634.365 1.252.747 1.852.383.6.95 1.114 1.703 1.541.753.427 1.755.64 3.005.64.58 0 1.17-.092 1.772-.276.603-.185 1.199-.427 1.79-.728.59-.3 1.164-.634 1.72-1.004.555-.37 1.077-.738 1.563-1.108-.602.762-1.257 1.558-1.963 2.39-.706.83-1.436 1.656-2.189 2.475-.753.82-1.517 1.593-2.293 2.32-.776.728-1.535 1.374-2.276 1.94-.741.565-1.453 1.01-2.137 1.333-.683.323-1.314.485-1.893.485-.556 0-.996-.052-1.32-.156-.325-.104-.568-.225-.73-.364-.162-.138-.26-.283-.296-.433-.034-.15-.052-.27-.052-.363 0-.208.058-.375.174-.502.116-.127.249-.248.4-.364.15-.115.283-.242.4-.38.115-.14.173-.336.173-.59 0-.253-.099-.478-.295-.675-.197-.196-.458-.294-.782-.294-.463 0-.846.185-1.147.554-.162.185-.3.404-.417.658-.116.208-.214.456-.295.744-.081.289-.122.595-.122.918 0 .785.215 1.426.643 1.922.429.496.92.889 1.477 1.177.556.289 1.088.485 1.598.589.51.104.857.156 1.042.156zm15.13-1.862c.85 0 1.551-.207 2.103-.623.551-.416.982-.947 1.292-1.594.31-.646.523-1.35.638-2.113.115-.762.172-1.49.172-2.183 0-.554-.028-1.039-.086-1.455-.057-.415-.086-.82-.086-1.212 0-.439.023-.837.069-1.195.046-.358.103-.664.172-.918.092-.3.184-.566.276-.797.115-.3.173-.531.173-.693 0-.185-.04-.346-.121-.485-.08-.139-.178-.254-.293-.346-.115-.093-.241-.162-.38-.208-.068-.023-.172-.035-.31-.035-.321 0-.591.098-.81.295-.218.196-.408.421-.568.675-.184.277-.334.6-.449.97-.252.462-.626 1.155-1.12 2.079-.494.924-1.051 1.87-1.672 2.84-.46.024-.844.133-1.154.33-.31.196-.57.421-.776.675-.253.277-.448.589-.586.935-.16.347-.27.676-.327.988-.058.312-.087.595-.087.849-.092.069-.224.144-.396.225-.172.08-.34.167-.5.26-.16.092-.299.19-.414.294-.114.104-.172.225-.172.364l.017.104c.012.069.046.144.104.225.057.08.143.162.258.242.115.081.276.122.483.122.253 0 .574-.127.965-.381.184.3.39.548.62.744.23.197.449.353.655.468.253.139.506.243.759.312.551.162 1.068.242 1.551.242zm.069-2.895c-.414 0-.707-.104-.88-.31-.171-.207-.258-.437-.258-.69 0-.482.138-.89.414-1.224.276-.333.54-.5.793-.5.16 0 .27.04.327.121l.017.021c.061.067.165.1.31.1.139 0 .208-.092.208-.276 0-.276-.075-.494-.224-.655-.15-.16-.305-.287-.466-.379.161-.253.316-.506.466-.758.149-.253.316-.529.5-.828 0 .207.005.322.017.345.011.023.028.075.051.155.023.08.04.236.052.466.012.23.017.655.017 1.275 0 .345-.017.7-.051 1.069-.035.367-.098.706-.19 1.016-.092.31-.23.564-.414.759-.183.195-.413.293-.69.293zm12.68 2.884c.51.047 1.019-.052 1.528-.295.51-.244.996-.568 1.459-.974.463-.406.897-.852 1.302-1.339.406-.487.759-.95 1.06-1.391.3-.44.544-.817.73-1.13.185-.313.289-.493.312-.54.093-.185.174-.4.243-.643.07-.243-.012-.423-.243-.539-.139-.07-.26-.087-.365-.052-.104.035-.202.087-.295.156-.093.093-.174.198-.243.313-.255.418-.58.876-.973 1.374-.393.499-.787.95-1.18 1.356-.394.406-.765.72-1.112.94-.348.22-.602.237-.764.052-.163-.186-.122-.563.121-1.13.243-.569.567-1.177.973-1.826.405-.65.81-1.27 1.215-1.861.406-.591.7-1.014.886-1.27.232-.347.417-.683.556-1.008.139-.325.208-.626.208-.904s-.07-.51-.208-.696c-.139-.185-.37-.301-.695-.347-.324-.047-.637.023-.938.208-.3.186-.579.406-.833.661-.278.278-.556.614-.834 1.009-.417.58-.776 1.1-1.077 1.564-.162.256-.312.51-.451.766-.209.347-.504.805-.886 1.373s-.799 1.125-1.25 1.67c-.452.544-.932.997-1.442 1.356-.51.36-.984.481-1.424.365-.046 0-.156-.035-.33-.104-.174-.07-.347-.174-.521-.313-.174-.14-.324-.33-.452-.574-.127-.244-.179-.55-.156-.922.023.163.081.325.174.487.07.14.162.278.278.418.115.139.278.255.486.347-.046-.417.075-.95.365-1.6.29-.649.608-1.275.955-1.877.417-.72.891-1.473 1.424-2.26.463-.604.706-1.166.73-1.688.023-.521-.255-.817-.834-.886-.301-.047-.585-.024-.851.07-.266.092-.51.225-.73.399-.22.174-.428.377-.625.609-.197.231-.376.463-.538.695-.51.742-.973 1.53-1.39 2.365-.347.719-.671 1.524-.972 2.417-.301.893-.44 1.803-.417 2.73 0 .44.081.835.243 1.183.14.3.36.58.66.834.301.255.753.406 1.355.452.764.047 1.482-.145 2.153-.574.672-.428 1.297-.968 1.876-1.617-.023.534.052.945.226 1.235.173.29.376.504.608.643.254.163.555.267.903.313zm12.64 0c.51.047 1.019-.052 1.528-.295.51-.244.995-.568 1.458-.974.464-.406.892-.858 1.285-1.356.394-.499.741-.963 1.042-1.392.301-.428.544-.8.73-1.112.185-.313.289-.493.312-.54.116-.185.203-.4.26-.643.058-.243-.017-.423-.225-.539-.14-.07-.266-.087-.382-.052-.116.035-.22.087-.313.156-.092.093-.173.198-.243.313-.254.418-.567.876-.937 1.374-.37.499-.759.945-1.164 1.34-.405.393-.781.7-1.129.92-.347.22-.613.25-.798.088-.14-.116-.145-.354-.018-.713.128-.36.296-.736.504-1.13.255-.464.544-.974.868-1.53.139-.233.342-.586.608-1.061.266-.476.474-.986.625-1.53.15-.546.203-1.073.156-1.583-.046-.51-.312-.904-.799-1.182-.37-.21-.746-.313-1.128-.313-.382 0-.764.07-1.146.208-.382.14-.753.336-1.112.591-.358.255-.7.534-1.024.835-.764.696-1.505 1.565-2.223 2.608-.254.371-.486.725-.694 1.061-.209.336-.405.667-.59.991.254-.51.503-.997.746-1.46.243-.464.469-.858.677-1.183.255-.394.487-.753.695-1.078.463-.603.706-1.165.73-1.687.022-.521-.256-.817-.834-.886-.324-.047-.614-.024-.869.07-.254.092-.497.225-.729.399-.231.174-.44.377-.625.609-.185.231-.359.463-.52.695-.232.394-.475.812-.73 1.252-.208.394-.44.858-.695 1.391-.254.534-.486 1.102-.694 1.704-.116.325-.243.765-.382 1.322-.14.556-.226 1.124-.26 1.704-.035.58.017 1.107.156 1.582.138.476.428.783.868.922.463.162 1.018.127 1.667-.104.3-.116.463-.279.486-.487.023-.07.011-.122-.035-.157s-.08-.064-.104-.087c-.139-.07-.243-.174-.313-.313.394-1.136.92-2.231 1.58-3.286.66-1.055 1.332-1.988 2.015-2.8.683-.811 1.314-1.455 1.892-1.93.58-.475.984-.701 1.216-.678.116.023.22.081.313.174.046.093.075.22.086.382.012.163-.052.406-.19.73.022-.115.034-.22.034-.312 0-.209-.046-.371-.139-.487-.07.232-.173.417-.312.556-.463.719-.892 1.438-1.285 2.156-.324.603-.637 1.252-.938 1.948-.301.696-.51 1.322-.625 1.878-.139.696-.133 1.24.017 1.635.15.394.353.683.608.869.278.232.625.37 1.042.417zm11.567.011c.533 0 1.061-.127 1.584-.382.522-.255 1.01-.58 1.462-.974.453-.394.87-.823 1.253-1.287.383-.463.72-.91 1.01-1.338.29-.43.528-.8.714-1.113.186-.313.302-.505.348-.574.07-.093.134-.209.192-.348.058-.139.087-.278.087-.417 0-.209-.082-.348-.244-.417-.14-.047-.22-.07-.244-.07-.116 0-.214.029-.296.087-.081.058-.145.11-.191.156-.07.093-.128.174-.174.244-.232.37-.517.777-.853 1.217-.337.44-.69.852-1.062 1.235-.372.382-.726.707-1.062.973-.337.267-.61.4-.818.4-.256 0-.383-.127-.383-.382 0-.302.145-.736.435-1.304.29-.568.627-1.148 1.01-1.74.383-.59.754-1.141 1.114-1.651l.783-1.113c.51-.695.766-1.333.766-1.913 0-.278-.087-.521-.261-.73-.174-.209-.459-.313-.853-.313-.209 0-.424.058-.644.174-.22.116-.43.255-.627.417-.197.163-.377.33-.54.505-.162.173-.29.33-.383.469-.07-.301-.278-.643-.626-1.026-.348-.382-.882-.574-1.602-.574-.812 0-1.7.308-2.663.922-.964.614-1.84 1.57-2.63 2.869-.603.974-1.055 1.942-1.357 2.904-.302.962-.453 1.825-.453 2.59 0 .742.151 1.345.453 1.809.302.464.766.695 1.393.695.534 0 1.096-.162 1.688-.486.592-.325 1.12-.742 1.585-1.252 0-.325.04-.609.121-.852.082-.244.174-.44.279-.592.104-.15.203-.266.296-.347.093-.082.15-.122.174-.122-.302.348-.464.684-.487 1.008-.024.325-.035.51-.035.557 0 .51.087.898.26 1.165.175.266.378.47.61.608.255.163.546.267.87.313zm-4.14-2.895c-.253 0-.379-.14-.379-.418 0-.325.161-.83.483-1.515.321-.685.718-1.376 1.189-2.073.471-.697.982-1.306 1.534-1.829.551-.522 1.068-.784 1.551-.784.276 0 .414.151.414.453 0 .186-.04.395-.12.627-.081.233-.179.47-.294.714-.115.244-.241.476-.38.697-.137.22-.252.4-.344.54-.23.302-.5.662-.81 1.08-.31.418-.626.813-.948 1.184-.322.372-.649.685-.982.94-.333.256-.638.384-.914.384zm21.47 3.092c.51.046 1.03-.064 1.56-.33.532-.266 1.035-.619 1.508-1.058.474-.44.925-.92 1.352-1.44.428-.52.797-1.012 1.11-1.475.311-.463.565-.862.762-1.197.196-.336.317-.526.364-.573.092-.185.167-.399.225-.642.058-.243-.017-.422-.225-.538-.139-.069-.26-.086-.364-.052-.104.035-.202.087-.295.157-.092.092-.173.196-.243.312-.254.416-.583.89-.987 1.423-.405.532-.826 1.023-1.265 1.474-.44.452-.844.804-1.214 1.059-.37.254-.647.3-.831.139-.14-.116-.15-.353-.035-.712.115-.358.277-.734.485-1.128.254-.462.555-.971.901-1.526.139-.232.341-.585.607-1.059.266-.474.474-.977.624-1.51.15-.531.202-1.052.156-1.56-.046-.51-.312-.903-.797-1.18-.416-.232-.832-.336-1.248-.313-.416.023-.82.133-1.213.33-.393.196-.78.462-1.162.798-.38.335-.722.677-1.022 1.024.046-.394.006-.752-.121-1.076-.127-.324-.364-.579-.71-.764-.37-.208-.74-.312-1.11-.312-.37 0-.734.075-1.092.226-.358.15-.71.358-1.057.624s-.67.55-.97.85c-.717.718-1.398 1.597-2.045 2.638l-.451.711c-.139.22-.277.445-.416.677.231-.463.456-.885.676-1.267.22-.382.422-.711.606-.989.208-.324.405-.624.59-.902.462-.602.704-1.163.728-1.683.023-.52-.266-.827-.867-.92-.6-.069-1.12.099-1.56.504-.439.404-.82.838-1.143 1.3-.232.394-.474.81-.728 1.25-.208.393-.44.856-.694 1.388-.254.532-.496 1.099-.727 1.7-.116.324-.237.764-.364 1.32-.127.554-.208 1.121-.243 1.7-.035.578.017 1.104.156 1.578.139.475.427.781.866.92.532.139 1.087.092 1.664-.139.116-.046.22-.104.312-.173.093-.07.15-.162.173-.278 0-.093-.023-.156-.069-.19-.046-.036-.08-.053-.104-.053-.046-.023-.115-.081-.208-.173.37-1.134.855-2.239 1.456-3.314.6-1.076 1.207-2.025 1.82-2.846.612-.821 1.178-1.475 1.698-1.96.52-.486.895-.718 1.126-.694.024 0 .07.011.14.034.068.023.126.075.172.156.047.081.07.203.07.365 0 .162-.07.393-.208.694.023-.093.034-.185.034-.278 0-.231-.034-.393-.104-.486-.046.116-.092.226-.138.33-.046.104-.093.18-.139.226-.462.717-.89 1.434-1.282 2.151-.324.601-.642 1.25-.953 1.943-.312.694-.526 1.319-.642 1.874-.138.694-.133 1.238.018 1.631.15.393.352.682.606.868.278.23.624.37 1.04.416h.295c.08 0 .179-.012.294-.035.37-.07.543-.214.52-.434-.023-.22-.07-.422-.138-.607-.047-.115-.052-.266-.018-.45.035-.186.087-.371.156-.556l.277-.694c.44-.995.942-1.943 1.508-2.846.566-.902 1.12-1.683 1.664-2.342.543-.66 1.022-1.168 1.438-1.527.416-.358.717-.503.902-.433.115.046.213.15.294.312.081.162.017.474-.19.937.023-.093.034-.185.034-.278 0-.162-.034-.312-.104-.45-.046.115-.092.219-.138.311-.047.093-.093.162-.14.209-.461.717-.889 1.434-1.282 2.151-.323.601-.635 1.25-.935 1.943-.3.694-.509 1.319-.624 1.874-.139.694-.139 1.238 0 1.631.138.393.335.682.589.868.277.23.624.37 1.04.416zm11.927-12.606c.142 0 .366-.112.673-.335.306-.223.62-.487.938-.793.318-.305.602-.628.85-.969.247-.34.371-.64.371-.898 0-.165-.03-.353-.088-.564-.06-.211-.148-.405-.266-.581-.118-.177-.26-.323-.425-.44-.165-.118-.366-.177-.602-.177-.283 0-.572.123-.867.37-.295.247-.566.54-.814.88-.248.341-.454.694-.62 1.058-.165.364-.248.675-.248.934 0 .282.048.522.142.722.095.2.195.352.301.458.106.106.207.182.3.23l.143.07.021.009c.046.017.11.026.191.026zm-5.966 12.41c.537 0 1.08-.128 1.628-.384.548-.256 1.079-.582 1.592-.977.514-.395.992-.825 1.435-1.29.444-.465.84-.913 1.19-1.343.35-.43.636-.802.858-1.116.222-.314.356-.506.402-.576.047-.116.1-.238.158-.366.058-.128.087-.25.087-.366 0-.117-.04-.233-.122-.35-.082-.115-.204-.173-.368-.173-.116 0-.215.029-.297.087-.082.058-.146.11-.193.157-.07.093-.128.174-.175.244-.21.372-.519.779-.927 1.22-.409.442-.84.855-1.295 1.239-.455.383-.887.709-1.295.976-.409.268-.718.401-.928.401-.256 0-.385-.127-.385-.383 0-.302.146-.738.438-1.308.291-.57.624-1.151.997-1.744.374-.593.741-1.151 1.103-1.674.361-.523.624-.89.787-1.099.257-.349.455-.686.595-1.011.14-.326.21-.628.21-.907 0-.28-.087-.523-.262-.733-.175-.209-.461-.314-.858-.314-.326 0-.63.1-.91.297-.28.197-.536.413-.77.645-.256.28-.513.593-.77.942-.56.79-1.073 1.581-1.54 2.372-.397.674-.793 1.424-1.19 2.25-.397.825-.677 1.61-.84 2.354-.07.325-.105.604-.105.837 0 .511.088.9.263 1.168.175.268.379.471.612.61.257.163.548.268.875.314zm16.217 3.722c1.456 0 2.657-.243 3.605-.729.947-.486 1.698-1.128 2.253-1.926.555-.799.942-1.707 1.161-2.725.22-1.019.33-2.06.33-3.125 0-.833-.04-1.666-.122-2.5-.08-.832-.167-1.63-.26-2.394-.23.185-.48.353-.745.503-.266.15-.52.278-.763.382-.242.104-.45.18-.624.226-.173.046-.271.069-.294.069.23-.139.48-.318.745-.538.266-.22.509-.428.728-.625.22-.197.41-.376.572-.538l.312-.312c1.225-1.227 2.213-2.46 2.964-3.698.751-1.238 1.127-2.458 1.127-3.662 0-.625-.099-1.122-.295-1.493-.196-.37-.422-.66-.676-.867-.277-.255-.6-.429-.97-.521-.301-.093-.613-.139-.937-.139-.6 0-1.126.156-1.577.469-.45.312-.815.653-1.092 1.024-.347.416-.624.902-.832 1.458-.323.81-.549 1.73-.676 2.76-.127 1.03-.19 2.088-.19 3.176v.78c0 .267.011.527.034.782-.416.324-.85.654-1.3.99-.45.335-.907.7-1.37 1.093-.924-.625-1.848-.937-2.772-.937-.624 0-1.19.098-1.699.295-.508.196-.942.416-1.3.66-.358.242-.653.485-.884.728-.231.243-.381.41-.45.503-.532.648-.902 1.29-1.11 1.927-.208.637-.312 1.244-.312 1.823 0 .694.116 1.336.347 1.926.23.59.474 1.105.728 1.545-.139.324-.26.602-.364.833-.104.232-.156.648-.156 1.25 0 .254.07.538.208.85.138.313.439.469.901.469.254 0 .45-.07.59-.208.138-.14.236-.295.294-.469.058-.174.093-.33.104-.469.012-.138.017-.22.017-.243.601.556 1.318.96 2.15 1.215.832.255 1.698.382 2.6.382zm6.645-16.546c0-.827.06-1.631.177-2.413.118-.781.27-1.465.459-2.05.188-.587.412-1.058.67-1.414.26-.356.519-.534.778-.534.306 0 .518.097.635.293.118.195.177.419.177.672 0 .23-.035.465-.106.706-.07.242-.141.466-.212.673-.094.252-.2.494-.318.724-.259.643-.594 1.246-1.006 1.81-.412.562-.83 1.074-1.254 1.533zm-6.978 14.064c-.778 0-1.487-.121-2.128-.364-.64-.244-1.121-.458-1.442-.643.343-.648.733-1.268 1.167-1.858.435-.59.887-1.135 1.356-1.633.47-.498.916-.943 1.34-1.337.422-.394.794-.718 1.115-.973.091.209.166.417.223.626.057.208.086.416.086.625 0 .139-.035.313-.103.52-.069.21-.172.412-.31.609-.137.197-.297.359-.48.486s-.377.191-.583.191c-.092.023-.184.058-.275.104-.092.047-.137.128-.137.243.023.186.126.394.309.626.183.231.515.347.995.347.39 0 .715-.07.978-.208.264-.14.487-.301.67-.487.206-.208.377-.451.515-.73.16-.323.269-.642.326-.954.057-.313.086-.608.086-.886 0-.486-.069-.926-.206-1.32-.138-.394-.298-.74-.48-1.042.182-.139.382-.295.6-.469.217-.174.452-.365.704-.573.045.394.091.764.137 1.112.046.347.091.648.137.903.069.555.103 1.065.103 1.528 0 .74-.068 1.372-.206 1.893-.137.52-.286.944-.446 1.268-.206.393-.423.718-.652.972-.527.533-1.082.903-1.665 1.112-.584.208-1.162.312-1.734.312zm-5.09-2.688c-.228-.535-.341-1.093-.341-1.674 0-.58.09-1.103.272-1.568.182-.465.363-.848.545-1.15.136-.233.289-.436.46-.61.17-.175.334-.32.493-.436.181-.14.351-.256.51-.349h-.034c.477-.279.942-.418 1.395-.418.318 0 .624.058.92.174.294.116.567.267.816.453-.975.883-1.911 1.796-2.808 2.737-.896.94-1.639 1.888-2.229 2.84zm20.699 1.385c.161.07.37.08.624.035.81-.253 1.59-.604 2.342-1.053.751-.448 1.405-.903 1.96-1.363.647-.53 1.249-1.081 1.804-1.657.902-.966 1.59-1.892 2.064-2.778.474-.885.775-1.673.902-2.364.127-.69.104-1.254-.07-1.69-.173-.438-.445-.702-.815-.795-.3-.069-.572-.08-.815-.034s-.457.132-.642.259c-.185.126-.347.276-.485.448-.14.173-.255.328-.347.466-.047.07-.081.15-.104.242-.047.161.011.322.173.483.393.391.544.863.451 1.415-.092.552-.277 1.081-.555 1.588-.324.598-.752 1.207-1.284 1.829-.462.529-.96.983-1.491 1.363-.532.38-1.064.696-1.596.949l-.035.034c-.277.161-.543.242-.798.242-.208 0-.399-.069-.572-.207-.174-.138-.26-.414-.26-.828.092.207.196.356.312.448.254.253.601.288 1.04.104-.069-.184-.08-.414-.034-.69.046-.276.133-.576.26-.898.127-.322.278-.661.451-1.018.174-.356.364-.707.572-1.052.463-.806 1.018-1.657 1.666-2.554.462-.598.705-1.156.728-1.674.023-.518-.254-.811-.832-.88-.301-.046-.584-.023-.85.069s-.51.224-.729.397c-.22.172-.422.374-.607.604-.185.23-.358.46-.52.69-.116.161-.243.345-.382.552l-.399.639-.503.81c-.208.346-.463.817-.763 1.416-.3.598-.636 1.185-1.006 1.76s-.77 1.064-1.197 1.466c-.428.403-.85.57-1.266.5-.255-.022-.417-.137-.486-.344-.07-.207-.075-.46-.017-.76.057-.299.161-.638.312-1.018.15-.38.33-.765.538-1.156.462-.92 1.087-1.944 1.873-3.071.462-.598.705-1.156.728-1.674.024-.518-.254-.811-.832-.88-.3-.046-.584-.023-.85.069s-.509.224-.729.397c-.22.172-.428.374-.624.604-.197.23-.376.46-.538.69-.509.736-.971 1.519-1.388 2.347-.346.713-.664 1.513-.954 2.398-.289.886-.422 1.79-.399 2.71 0 .414.081.793.243 1.138.14.3.353.581.642.846.29.264.734.42 1.336.466.647.069 1.266-.092 1.856-.483.59-.392 1.127-.886 1.613-1.484.046.322.133.638.26.949.127.31.353.58.677.81.069.047.185.104.347.173zm15.743.062c.534 0 1.062-.127 1.584-.382s1.01-.58 1.462-.974c.453-.394.87-.823 1.254-1.287.383-.463.72-.91 1.01-1.338.29-.43.528-.8.713-1.113.186-.313.302-.505.349-.574.07-.093.133-.209.191-.348.058-.139.087-.278.087-.417 0-.209-.081-.348-.244-.417-.139-.047-.22-.07-.243-.07-.116 0-.215.029-.296.087-.082.058-.145.11-.192.156-.07.093-.127.174-.174.244-.232.37-.516.777-.853 1.217-.337.44-.69.852-1.062 1.235-.371.382-.725.707-1.062.973-.336.267-.61.4-.818.4-.255 0-.383-.127-.383-.382 0-.302.145-.736.435-1.304.29-.568.627-1.148 1.01-1.74.383-.59.754-1.141 1.114-1.651l.783-1.113c.511-.695.766-1.333.766-1.913 0-.278-.087-.521-.26-.73-.175-.209-.46-.313-.854-.313-.209 0-.423.058-.644.174-.22.116-.43.255-.627.417-.197.163-.377.33-.54.505-.162.173-.29.33-.382.469-.07-.301-.279-.643-.627-1.026-.348-.382-.882-.574-1.601-.574-.813 0-1.7.308-2.664.922-.963.614-1.84 1.57-2.629 2.869-.603.974-1.056 1.942-1.358 2.904-.301.962-.452 1.825-.452 2.59 0 .742.15 1.345.452 1.809.302.464.766.695 1.393.695.534 0 1.097-.162 1.689-.486.592-.325 1.12-.742 1.584-1.252 0-.325.04-.609.122-.852.081-.244.174-.44.278-.592.105-.15.203-.266.296-.347.093-.082.151-.122.174-.122-.301.348-.464.684-.487 1.008-.023.325-.035.51-.035.557 0 .51.087.898.261 1.165.174.266.377.47.61.608.255.163.545.267.87.313zm-4.14-2.895c-.252 0-.378-.14-.378-.418 0-.325.16-.83.482-1.515.322-.685.718-1.376 1.19-2.073.47-.697.982-1.306 1.533-1.829.552-.522 1.069-.784 1.551-.784.276 0 .414.151.414.453 0 .186-.04.395-.12.627-.08.233-.179.47-.294.714-.114.244-.24.476-.379.697-.138.22-.252.4-.344.54-.23.302-.5.662-.81 1.08-.31.418-.627.813-.948 1.184-.322.372-.65.685-.983.94-.333.256-.638.384-.913.384zm12.721 11.789c.853 0 1.545-.127 2.076-.38.53-.254.94-.565 1.228-.934.288-.37.479-.755.571-1.159.092-.403.138-.755.138-1.055 0-.46-.086-.876-.26-1.245-.172-.369-.35-.68-.535-.934-.231-.276-.485-.53-.762-.76-.392-.254-.83-.456-1.314-.606-.485-.15-1.015-.225-1.592-.225-.253 0-.403.006-.45.018-.046.011-.12.023-.224.034-.104.012-.289.035-.554.07-.265.034-.744.074-1.436.12.139-1.66.565-3.187 1.28-4.582.715-1.395 1.534-2.605 2.457-3.631.922-1.026 1.845-1.828 2.768-2.404.922-.576 1.66-.865 2.214-.865.392 0 .669.121.83.363.162.243.242.525.242.848 0 .346-.063.709-.19 1.09-.127.38-.27.731-.432 1.054-.185.392-.392.772-.623 1.141-.323.485-.663.911-1.02 1.28-.358.369-.71.669-1.056.9-.346.23-.663.403-.951.518-.289.115-.525.173-.71.173-.23 0-.346-.07-.346-.208 0-.115.07-.253.208-.415.138-.161.283-.334.432-.518.15-.185.295-.387.433-.606.138-.219.207-.432.207-.64 0-.322-.11-.559-.328-.708-.22-.15-.41-.225-.571-.225-.185 0-.37.046-.554.138-.092.046-.173.08-.242.104-.692.461-1.182.945-1.47 1.452-.289.508-.433.992-.433 1.453 0 .76.26 1.355.779 1.781.519.427 1.17.64 1.955.64.784 0 1.614-.202 2.49-.605.877-.404 1.684-.969 2.422-1.695.738-.726 1.35-1.602 1.834-2.628s.727-2.15.727-3.372c0-.923-.202-1.724-.606-2.404-.403-.68-1.067-1.043-1.99-1.09-.737 0-1.481.22-2.23.658-.75.438-1.494.991-2.232 1.66.115-.23.207-.461.276-.692.07-.23.104-.45.104-.657 0-.254-.092-.507-.276-.761-.185-.254-.485-.38-.9-.38-.254 0-.496.063-.727.19-.23.127-.444.288-.64.484s-.374.403-.536.622c-.161.22-.3.41-.415.571-.6.853-1.16 1.73-1.678 2.629-.519.899-1.01 1.833-1.47 2.801-.277.646-.542 1.326-.796 2.04-.208.623-.421 1.326-.64 2.11-.22.784-.375 1.591-.467 2.421-.646-.046-1.24-.15-1.782-.311-.542-.162-.975-.415-1.298-.761l-.103-.104c-.046-.023-.081-.046-.104-.069-.023-.023-.058-.035-.104-.035-.138 0-.207.116-.207.346 0 .346.028.715.086 1.107.058.392.202.755.432 1.09.231.334.571.61 1.021.83.45.219 1.067.328 1.851.328.577 0 1.09-.046 1.54-.138.337-.07.548-.126.632-.169l.011-.006-.019.02c-.204.208-.446.356-.726.445l-.071.021c-.335.092-.652.15-.952.173.046.207.162.542.346 1.003.185.461.49.934.917 1.418.427.484 1.003.91 1.73 1.28.727.368 1.655.553 2.785.553zm.133-2.689c-.563 0-1.039-.125-1.426-.374-.387-.25-.71-.53-.968-.838-.282-.357-.516-.773-.704-1.248.047-.024.094-.042.14-.054.048-.012.095-.03.142-.053.422-.143.844-.268 1.267-.375.422-.107.868-.16 1.338-.16.164 0 .363.018.598.053.235.036.464.107.687.214.223.107.41.262.563.464.152.202.229.481.229.838 0 .071-.018.19-.053.356-.035.167-.112.34-.229.517-.117.179-.3.333-.546.464-.246.13-.592.196-1.038.196z" transform="translate(-748 -3351) translate(0 3322) translate(748 29)"/>
                </g>
            </g>
        </g>
    </g>
</svg>
